<?xml version="1.0" encoding="utf-8"?>
<!-- Generator: Adobe Illustrator 21.1.0, SVG Export Plug-In . SVG Version: 6.00 Build 0)  -->
<svg version="1.1" id="图层_1" xmlns="http://www.w3.org/2000/svg" xmlns:xlink="http://www.w3.org/1999/xlink" x="0px" y="0px"
	 viewBox="0 0 434.9 192.2" style="enable-background:new 0 0 434.9 192.2;" xml:space="preserve">
<style type="text/css">
	.st0{fill:#FB6E1F;}
	.st1{fill:#1F3193;}
	.st2{font-family:'STYuanti-SC-Bold';}
	.st3{font-size:103.613px;}
	.st4{letter-spacing:10;}
	.st5{font-family:'STYuanti-SC-Regular';}
	.st6{font-size:33.2933px;}
	.st7{fill:#FFFFFF;}
	.st8{fill:none;stroke:#3F6DB0;stroke-miterlimit:10;}
	.st9{fill:none;stroke:#FB7211;stroke-miterlimit:10;}
	.st10{fill:#5CB323;}
	.st11{fill:#4A74B4;}
	.st12{fill:#E4C32C;}
	.st13{fill:#FE6510;}
</style>
<g id="XMLID_7111_">
	<circle id="XMLID_7134_" class="st0" cx="96.1" cy="96.1" r="96.1"/>
	<text id="XMLID_7133_" transform="matrix(1 0 0 1 216.411 111.3839)" class="st1 st2 st3 st4">喜编</text>
	<text id="XMLID_7132_" transform="matrix(1 0 0 1 228.3437 168.3487)" class="st1 st5 st6">全真立体编程</text>
	<path id="XMLID_7131_" class="st7" d="M163.8,118.1c1.4-0.8,3.3-2.8,3.4-4.5c0.1-1.5-0.3-3-1.3-4.1c-2.8-3.1-12-7.4-8.8-12.8
		c0.6-0.9,1.6-1.3,2-2.4c-1.6,0.2-2.7,0.3-3.1-1.5c-0.1-0.6-0.6-1.3-0.6-1.9c0-0.7,0.3-1.6,0.5-2.3c0.2-0.7,0.9-1.7,1-2.3
		c0.1-1.2-0.3-1.2-0.6-2.3c-0.8-2.9,0.6-6.9,0.7-9.9c0.1-3.5-0.1-7.2-1.2-10.6c-1.2-3.8-3.3-7.3-5.7-10.4c0,0.2,0,0.4,0.1,0.6
		c-0.4-0.5-0.9-1.1-1.3-1.6c-0.8-0.9-1.4-1.9-1.1-2.5c0.5-1,1.7,0.2,2.6,1.1c0-0.3-0.1-0.6-0.1-0.9c-0.4-0.3-0.8-0.6-1.2-0.7
		c0.4-0.1,0.8,0,1.1,0.1c0-0.2-0.1-0.4-0.1-0.6c0,0-0.1,0-0.1,0c0,0,0.1,0,0.1,0c-0.1-0.6-0.1-1.1-0.2-1.7c-0.3-0.1-0.6-0.2-0.9-0.3
		c0.1-0.3,0.4-0.5,0.7-0.6c0-0.3-0.1-0.5-0.1-0.8c-0.9-0.1-1.9-0.2-2.6,0c0.5-0.6,1.4-1,2.4-1.2c-0.1-0.7-0.2-1.3-0.3-2
		c-0.4,0-0.9,0-1.3,0.1c-0.9,0.1-2.1,0.5-2.9,0.2c0.6-0.3,1.3-0.5,1.7-0.8c-1-0.1-1.9-0.5-2.9-0.6c-1.2-0.1-2.7,0.2-3.8-0.5
		c1.3-1.5,3.4-0.5,5.1-0.9c0.1-0.2,0.1-0.3-0.1-0.5c-2-0.4-4.3-1-6.4-0.8c-1,0.1-2,0.6-3,0.6c-1.4-0.1-1.4-0.7-2.1-1.6
		c-0.7-0.9-1.1-1-2.4-1.2c-0.3,0-2.3-0.6-2.3-0.6c0.1-0.1,0.5-0.4,0.8-0.5c-1.3-1.1-2.9-1.4-4.5-1.5c-0.4,0-3.6-0.6-3.6-0.6
		c0.4-0.3,0.4-0.7,0.6-1c-1-0.5-2.5-0.5-3.6-0.9c0.3-0.1,0.5-0.3,0.7-0.5c-1.8,0.3-3.8-0.3-5.6-0.1c-0.9,0.1-2.8,0.7-3.5,0.2
		c0.2-0.6,0.7-1.1,1-1.5c-0.5,0-1.4,0-2,0.2c-0.8,0.3-0.8,1-1.6,1.1c-0.6,0.1-1.5-0.3-2-0.7c-0.8-0.7-1.2-2.8-0.1-3.5
		c-0.8,0.6-4.9,2.9-5.7,1.7c-0.5-0.8,1.3-2.4,2-2.4c-1.2,0-2.8-0.2-3.9,0.1c-2.2,0.7-3.5,2.7-6.1,3.1c1.2-2-1.7-0.6-2.2-0.7
		c0-0.2-0.2-0.5-0.2-0.7c-0.6,0-1.1,0.1-1.7,0.2c0.5-0.1,0.6-0.4,0.9-0.6c-1.1-0.6-2.3,0.3-3.3-0.4c0.4-0.5,1.3-1,2.1-1.2
		c-0.8,0-1.7-0.1-2.5,0c-1.1,0.1-2,0.4-3,0.8c-1.2,0.4-2,0.7-3.1,1.6c-0.8,0.6-1.7,2.2-2.9,2c0.2-0.7,1-1.2,1.5-1.9
		c-0.7-0.5-4,0-4.3,0.7c-0.6,0-1.8,0.5-2.8,0.5c0.2-0.2,0.4-0.4,0.7-0.6c-0.3,0.2-1,0.1-1.3,0.2c-0.5,0.1-1,0.1-1.5,0.2
		c-1,0.1-2,0.3-2.9,0.7c-0.5,0.2-1.9,1.1-1.3-0.1c0.3-0.6,0.8-0.9,1.2-1.4c-0.7-0.2-1.9,1.2-2.3,1.7c-0.3,0.4-0.5,0.7-0.7,1.2
		c-0.1,0.3-1.9,2.6-2.2,2.3c-0.7-0.6,0.1-1.4,0.3-2.1c-0.5,0.5-0.9,0.9-1.3,1.5c-0.2,0.3-0.3,0.6-0.5,0.9c-0.4,0.6-1.1,0.4-1.5,0.8
		c-0.5,0.4-1.2,1.3-1.8,0.5c-0.1-0.1-2.1,3.4-2.3,1.4c-0.1-1.2,1.2-2.1,1.8-3.1c-0.7,0-1.5,1-1.9,1.5c-0.7,0.9-1,2-1.6,3
		c-0.6,1.2-1.1,3.6-2.7,2.5c-0.4,0.8-0.4,1.4-0.3,2.2c-0.9,0.4-1.1-1-2-1.1c-0.1,0.7,0.1,1.4,0.2,2.1c-0.7-1.5-2.9-3.2-4.6-3.4
		c1.8,1.3,3.1,3,2.6,5.2c-1.3,0.8-2.1,0.7-3.7,0.9c-0.1,1.5-1.1,4.5-3.2,4.2c0.1,0.3-0.1,0.7-0.1,1c-1.9,0.3-3.6,0.5-4.6,2.3
		c0.2-0.3,1.6,0.3,1.8,0.5c0.5,0.5,0.4,1,0.4,1.7c0.1,0.6-0.3,1.1-0.3,1.6c0,0.5,0.3,1.5,0.2,1.7c-0.4,1.4-2.3,1.5-3,0.2
		c-0.1,1.2-0.1,2-0.5,3c-0.2,0.6-0.3,1.6-0.7,2.1c-0.7,1-1.4,0.4-2.3,1.2c-0.8,0.6-1.5,2.8-1.5,3.7c0-0.5,1.6-2,2.1-2.1
		c1.9-0.2,0.5,1.7,0.4,2.6c-0.2,2.1,1.6,3.5-0.5,5.1c-1.4,1.1-3,1.4-3.3,3.5c0.3-2.4,5-1.7,2.3,1.6c3,3.6-1.5,2.4-3,4
		c0.4,0.5,1.2,0.6,1.7,1.1c0.4,0.4,0.9,1.7,0.7,2.3c-0.3,0.9-1.3,0.6-1.7,1.3c0.3-0.6,1.7,0.7,1.9,1c0.7,1.2-0.5,2.6-1,3.7
		c-0.5,1.3-0.8,3-0.4,4.3c-0.4-1.4,2.4-2.1,3.1-0.9c0.6,1.1-0.8,2.4-1,3.4c0.7-0.9,2,0.2,2.4,0.9c0.9,1.4-0.4,2.5-1,3.7
		c-0.1,0.1-0.1,0.2-0.1,0.4c-0.2-0.2-0.5-0.4-0.7-0.6c-0.4,1.4-0.3,2.9-0.4,4.3c0-1.6,1.7-2.9,2.8-1.3c0.8,1.1-0.2,2.1-0.6,3.3
		c0.5-1.5,2.4-0.4,2.7,0.7c0.4,1.1-0.7,3-1.8,3.3c1.2-0.3,2.1,1.7,2.4,2.4c0.4,1,0.7,2.4,2.1,2c0.2,0.9,0.2,1.9,0.4,2.8
		c0.1-0.1,0.5-0.3,0.7-0.5c0.4,1.2-0.1,2,0,3.2c0.1,1,0.5,1.6,0.9,2.4c0.8,1.4,2.2,3.4,2,5.1c0.9-0.8,1-1.7,0.8-2.8
		c-0.2-1.1-1.4-1.7-1.3-3c3,1.1,1.6,5.2,4,6.8c0.2-0.3,0.6-0.5,0.8-0.8c0.3,0.6,1,0.8,1.3,1.3c0.4,0.6,0,1.8,0.9,2.3
		c0.8,0.4,0.9-0.7,1.7,0.1c0.4,0.4,0.3,1.9,0.4,2.5c0-0.4,0.3-0.6,0.4-0.9c0.6,0.6,0.6,1.6,0.9,2.3c0.4,0.8,0.9,1.4,1.4,2.1
		c0.7,1.3,1.1,3.6,2.7,4.1c0.1-0.4,0.4-0.6,0.3-1.1c1.7,0.9,1.7,4.7,2.7,6.2c0.2-0.7,0.2-1.4,0.1-2.1c0,0.1,0.7,0.5,0.8,0.6
		c0.3,0.3,0.5,0.5,0.7,0.8c1.3,1.9,2.3,4.1,2.5,6.4c0,0.2,0,0.5,0,0.8c0,0.3-0.2,0.5-0.1,0.7c0,0,0.8-0.7,0.9-0.8
		c0.3-0.3,0.5-0.7,0.7-1.1c0.4-0.8,0.4-1.8,0.3-2.7c-0.1-0.8-0.5-1.4-0.7-2.2c0,0,1.1,0.6,1.2,0.7c1.2,1.3,2,3.3,1.9,5
		c0,1-0.5,2-0.8,2.9c0-0.1,0.7-0.4,0.8-0.5c0.2-0.2,0.4-0.4,0.6-0.7c0.7-1.1,0.4-2.4,0.6-3.6c0.1-0.9,0.7-0.1,1,0.3
		c0.3,0.6,0.4,1.2,0.4,1.8c0.1,1-0.3,2.3-0.7,3.1c-1.3,2.6-5.3,5.9-8.3,4.4c0,1,2.3,1,2.9,0.9c1.3-0.2,2.5-0.6,3.6-1.2
		c2-1.1,4.2-3,4.3-5.5c0,0.1,0.4,0.3,0.5,0.4c0.2,0.2,0.3,0.4,0.3,0.7c0.1,0.7-0.2,1.3-0.4,1.9c-0.6,1.3-1.4,2.6-2.5,3.7
		c-2,2-5.7,3-8.4,1.9c0,0,0.4,0.5,0.5,0.6c0.2,0.2,0.4,0.3,0.6,0.5c0.6,0.3,1.3,0.4,2,0.4c1.2,0,2.4-0.1,3.5-0.4
		c2.1-0.5,3.5-1.5,5-2.9c-0.2,0.2-0.1,1.1-0.2,1.4c-0.1,0.6-0.2,1.2-0.3,1.8c-0.3,1.3-0.8,2.5-1.3,3.8c-0.7,1.9-1.5,3.8-2.4,5.6
		c-1.4,2.7-2.8,5.3-4.2,8c10.4,3.9,21.7,6,33.5,6c11.3,0,22.2-2,32.3-5.6c-0.1-0.5-0.1-0.9-0.2-1.3c-0.3-2.2-2.5-5-3.9-6.9
		c-2.8-3.7-5.2-10.1-0.5-13.7c2.1-1.6,6-1.4,8.5-1.4c2,0,4,0,5.9-0.4c1.8-0.4,3.3-1.4,5-1.8c1.7-0.5,3.5-0.3,5.2-0.8
		c2-0.6,4.7-1.3,6.4-2.7c2-1.7,2.6-4.6,1.9-6.8c-0.4-1.4-1.1-2.2-1.3-3.7c-0.3-2-0.4-4.2,1-5.7c0.9-1,3.1-2.4,2.9-4
		c-0.2-1.2-1.8-1.9-2.8-2.4c-3.4-1.8,0.8-2.3,2.4-3c1.4-0.6,3.6-2.9,3.2-4.5c-0.2-1-1.4-1.7-1.9-2.7c-0.6-1.2-0.7-2.7-0.4-3.9
		C160.5,119,162.2,119,163.8,118.1z"/>
	<g id="XMLID_7112_">
		<line id="XMLID_7130_" class="st8" x1="84.8" y1="95.6" x2="77.6" y2="88.4"/>
		<line id="XMLID_7129_" class="st9" x1="95.1" y1="71.1" x2="83.1" y2="53.7"/>
		<line id="XMLID_7128_" class="st9" x1="52.1" y1="68.6" x2="41.5" y2="77.1"/>
		<g id="XMLID_7113_">
			<rect id="XMLID_7127_" x="92.6" y="67.9" class="st0" width="23.8" height="23.8"/>
			<rect id="XMLID_7126_" x="98.7" y="46.5" class="st10" width="14.4" height="14.4"/>
			<rect id="XMLID_7123_" x="72.8" y="44.3" class="st11" width="14.4" height="14.4"/>
			<rect id="XMLID_7122_" x="83.1" y="94" class="st11" width="14.4" height="14.4"/>
			<rect id="XMLID_7121_" x="50.1" y="55.7" class="st12" width="14.4" height="14.4"/>
			<rect id="XMLID_7120_" x="62.4" y="73.3" class="st10" width="18.3" height="18.3"/>
			<rect id="XMLID_7118_" x="34.6" y="75.2" class="st13" width="9.2" height="9.2"/>
			<rect id="XMLID_7117_" x="25.4" y="49.1" class="st10" width="9.2" height="9.2"/>
			<rect id="XMLID_7114_" x="10.4" y="39.7" class="st11" width="9.2" height="9.2"/>
		</g>
	</g>
</g>
</svg>
