<?xml version="1.0" encoding="utf-8"?>
<!-- Generator: Adobe Illustrator 21.1.0, SVG Export Plug-In . SVG Version: 6.00 Build 0)  -->
<svg version="1.1" xmlns="http://www.w3.org/2000/svg" xmlns:xlink="http://www.w3.org/1999/xlink" x="0px" y="0px"
	 viewBox="0 0 1644.9 1529.5" style="enable-background:new 0 0 1644.9 1529.5;" xml:space="preserve">
<style type="text/css">
	.st0{enable-background:new    ;}
	.st1{fill:#B3B8CE;}
	.st2{fill:#6A7899;}
	.st3{fill:#F5F8FF;}
	.st4{fill:#3B3F56;}
	.st5{fill:#CED4F2;}
	.st6{fill:#265A84;}
	.st7{fill:#5A8FCE;}
	.st8{fill:#C0DDFF;}
	.st9{fill:url(#XMLID_23_);}
	.st10{fill:none;stroke:#FFFFFF;stroke-width:5;stroke-miterlimit:10;}
	.st11{fill:#7EBEFE;}
	.st12{fill:#6BA1F4;}
	.st13{fill:#5187CA;}
	.st14{clip-path:url(#XMLID_24_);enable-background:new    ;}
	.st15{fill:#E59328;}
	.st16{clip-path:url(#XMLID_30_);enable-background:new    ;}
	.st17{fill:#826119;}
	.st18{fill:#87641A;}
	.st19{fill:#8C681B;}
	.st20{fill:#916C1C;}
	.st21{fill:#96701D;}
	.st22{fill:#9B731E;}
	.st23{fill:#C39126;}
	.st24{fill:url(#XMLID_39_);}
	.st25{fill:#FFC62D;}
	.st26{fill:#729CF8;}
	.st27{fill:#8CA6C9;}
	.st28{fill:#90AACE;}
	.st29{fill:#93AED3;}
	.st30{fill:#97B2D8;}
	.st31{fill:#9AB6DD;}
	.st32{fill:#9EBAE2;}
	.st33{fill:#A1BEE7;}
	.st34{fill:#A4C3EC;}
	.st35{fill:#A8C7F1;}
	.st36{fill:#ABCBF6;}
	.st37{fill:#AFCFFB;}
	.st38{fill:#B9D5FB;}
	.st39{fill:#BDD7FC;}
	.st40{fill:#C0D9FC;}
	.st41{fill:#C2DBFC;}
	.st42{fill:#CCE3FF;}
	.st43{fill:#A9D0FF;}
	.st44{fill:none;stroke:#FFFFFF;stroke-width:1.2138;stroke-miterlimit:10;}
	.st45{fill:#858585;}
	.st46{fill:#E6E6E6;}
	.st47{fill:#FFFFFF;}
	.st48{fill:none;stroke:#2868B8;stroke-width:1.2138;stroke-miterlimit:10;}
	.st49{fill:url(#XMLID_108_);}
	.st50{fill:#607493;}
	.st51{fill:#96AACC;}
	.st52{fill:#FFD8CF;}
	.st53{fill:#602620;}
	.st54{fill:#24242D;}
	.st55{fill:#373744;}
	.st56{fill:#FCCD47;}
	.st57{fill:#6B6B6B;}
	.st58{fill:#FEA046;}
	.st59{fill:#494949;}
	.st60{fill:#7F7F7F;}
	.st61{fill:#BFCCE0;}
	.st62{fill:#FA6579;}
	.st63{fill:#DD3E54;}
	.st64{fill:#485AF9;}
	.st65{fill:#A3AAB5;}
	.st66{fill:#8EFC47;}
	.st67{fill:#EAEAEA;}
	.st68{fill:#BEC7D3;}
	.st69{fill:#172472;}
	.st70{fill:url(#XMLID_109_);}
	.st71{fill:url(#XMLID_189_);}
	.st72{fill:url(#XMLID_191_);}
	.st73{fill:url(#XMLID_195_);}
	.st74{fill:url(#XMLID_207_);}
	.st75{fill:url(#XMLID_209_);}
	.st76{fill:url(#XMLID_232_);}
	.st77{fill:url(#XMLID_233_);}
	.st78{fill:url(#XMLID_242_);}
	.st79{fill:url(#XMLID_243_);}
	.st80{fill:url(#XMLID_244_);}
	.st81{fill:url(#XMLID_245_);}
	.st82{fill:url(#XMLID_246_);}
	.st83{fill:url(#XMLID_248_);}
	.st84{fill:url(#XMLID_249_);}
	.st85{fill:url(#XMLID_256_);}
	.st86{fill:url(#XMLID_259_);}
	.st87{fill:url(#XMLID_262_);}
	.st88{fill:url(#XMLID_301_);}
	.st89{fill:url(#XMLID_303_);}
	.st90{fill:url(#XMLID_305_);}
	.st91{fill:url(#XMLID_306_);}
	.st92{fill:url(#XMLID_307_);}
	.st93{fill:url(#XMLID_308_);}
	.st94{fill:url(#XMLID_309_);}
	.st95{fill:url(#XMLID_310_);}
	.st96{fill:url(#XMLID_311_);}
	.st97{fill:url(#XMLID_312_);}
	.st98{fill:url(#XMLID_313_);}
	.st99{fill:url(#XMLID_314_);}
	.st100{fill:url(#XMLID_315_);}
	.st101{fill:url(#XMLID_316_);}
	.st102{fill:url(#XMLID_317_);}
	.st103{fill:url(#XMLID_318_);}
	.st104{fill:url(#XMLID_319_);}
	.st105{fill:url(#XMLID_320_);}
	.st106{fill:url(#XMLID_321_);}
	.st107{fill:url(#XMLID_322_);}
	.st108{fill:url(#XMLID_323_);}
	.st109{fill:url(#XMLID_324_);}
	.st110{fill:url(#XMLID_325_);}
	.st111{fill:url(#XMLID_326_);}
	.st112{fill:url(#XMLID_327_);}
	.st113{fill:url(#XMLID_328_);}
	.st114{fill:#F4A6CC;}
	.st115{fill:#4F1E1C;}
	.st116{fill:#F54593;}
	.st117{fill:#FFEB88;}
	.st118{fill:#D34288;}
	.st119{fill:#232735;}
	.st120{fill:url(#XMLID_329_);}
	.st121{fill:url(#XMLID_330_);}
	.st122{fill:#9DFFFF;}
	.st123{fill:url(#XMLID_331_);}
	.st124{fill:url(#XMLID_332_);}
	.st125{fill:#FBF786;}
	.st126{fill:url(#XMLID_333_);}
	.st127{fill:url(#XMLID_334_);}
</style>
<g id="图层_1">
</g>
<g id="图层_2">
	<g id="XMLID_1848_">
		<g id="XMLID_1852_" class="st0">
			<g id="XMLID_1858_">
				
					<image style="overflow:visible;" width="2938" height="1828" id="XMLID_258_" xlink:href="8FDEC8891B80A14E.png"  transform="matrix(0.24 0 0 0.24 -36.0274 1127.0139)">
				</image>
			</g>
			<path id="XMLID_1872_" class="st1" d="M633,1328.6c0,0.2,0,0.3-0.1,0.5c0,0.1-0.1,0.3-0.1,0.4c0,0.2-0.1,0.3-0.1,0.5
				c0,0.1-0.1,0.3-0.2,0.4c-0.1,0.2-0.1,0.3-0.2,0.5c-0.1,0.1-0.1,0.2-0.2,0.3c-0.1,0.2-0.2,0.4-0.4,0.6c-0.1,0.1-0.2,0.2-0.3,0.3
				c-0.2,0.2-0.4,0.5-0.7,0.7c-0.1,0.1-0.2,0.2-0.3,0.3c-0.2,0.1-0.3,0.3-0.5,0.4c-0.1,0.1-0.3,0.2-0.4,0.3
				c-0.2,0.1-0.4,0.3-0.6,0.4c-0.2,0.1-0.4,0.3-0.6,0.4l-200.1,116.3l-0.1,19.3l200.1-116.3c0.1,0,0.1-0.1,0.2-0.1
				c0.1-0.1,0.3-0.2,0.4-0.3c0.2-0.1,0.4-0.2,0.6-0.4c0.2-0.1,0.3-0.2,0.4-0.4c0.2-0.1,0.3-0.3,0.5-0.4c0,0,0.1-0.1,0.1-0.1
				c0.1-0.1,0.1-0.1,0.2-0.2c0.2-0.2,0.5-0.5,0.7-0.7c0-0.1,0.1-0.1,0.1-0.2c0-0.1,0.1-0.1,0.1-0.2c0.1-0.2,0.3-0.4,0.4-0.6
				c0-0.1,0.1-0.2,0.2-0.2c0,0,0-0.1,0.1-0.1c0.1-0.2,0.2-0.3,0.2-0.5c0-0.1,0.1-0.2,0.1-0.3c0,0,0-0.1,0-0.1
				c0.1-0.2,0.1-0.3,0.1-0.5c0-0.1,0.1-0.2,0.1-0.3c0,0,0-0.1,0-0.1c0-0.2,0-0.3,0.1-0.5c0-0.1,0-0.2,0-0.3c0,0,0-0.1,0-0.1
				l0.1-19.3C633,1328.3,633,1328.5,633,1328.6z"/>
			<g id="XMLID_1863_" class="st0">
				<path id="XMLID_1902_" class="st2" d="M428.3,1450.9l-0.1,19.3c-1.1,0.6-2.2,1.1-3.5,1.5l0.1-19.3
					C426.1,1452,427.2,1451.5,428.3,1450.9"/>
				<path id="XMLID_1901_" class="st2" d="M424.8,1452.4l-0.1,19.3c-1,0.3-2,0.6-3,0.7l0.1-19.3
					C422.8,1453,423.8,1452.7,424.8,1452.4"/>
				<path id="XMLID_1856_" class="st2" d="M421.7,1453.2c-0.6,0.1-1.2,0.2-1.8,0.3c-0.2,0-0.4,0-0.6,0c-0.4,0-0.7,0.1-1.1,0.1
					c-0.2,0-0.5,0-0.7,0c-0.3,0-0.6,0-0.9,0c-0.2,0-0.5,0-0.7,0c-0.3,0-0.5,0-0.8,0c-0.2,0-0.5,0-0.7-0.1c-0.3,0-0.5-0.1-0.8-0.1
					c-0.2,0-0.5-0.1-0.7-0.1c-0.3,0-0.6-0.1-0.8-0.1c-0.2,0-0.4-0.1-0.7-0.1c-0.3-0.1-0.7-0.2-1-0.2c-0.2,0-0.4-0.1-0.5-0.1
					c-0.6-0.2-1.2-0.4-1.7-0.6c-0.1,0-0.1-0.1-0.2-0.1c-0.8-0.3-1.5-0.6-2.1-1L4.7,1219.2c-2.3-1.4-3.8-3-4.4-4.8
					c-0.2-0.6-0.3-1.2-0.3-1.8l-0.1,19.3c0,2.4,1.6,4.7,4.7,6.5l401.2,231.7c0.7,0.4,1.4,0.7,2.1,1c0,0,0.1,0,0.1,0.1
					c0,0,0.1,0,0.1,0c0.5,0.2,1.1,0.4,1.7,0.6c0,0,0.1,0,0.1,0c0.1,0,0.3,0.1,0.4,0.1c0.3,0.1,0.6,0.2,1,0.2c0.1,0,0.2,0,0.3,0.1
					c0.1,0,0.3,0,0.4,0.1c0.3,0.1,0.6,0.1,0.8,0.1c0.1,0,0.2,0,0.3,0.1c0.1,0,0.2,0,0.4,0c0.3,0,0.5,0.1,0.8,0.1c0.1,0,0.3,0,0.4,0
					c0.1,0,0.2,0,0.4,0c0.3,0,0.5,0,0.8,0c0.1,0,0.3,0,0.4,0c0.1,0,0.2,0,0.3,0c0.3,0,0.6,0,0.9,0c0.1,0,0.3,0,0.4,0
					c0.1,0,0.2,0,0.3,0c0.4,0,0.7,0,1.1-0.1c0.1,0,0.3,0,0.4,0c0,0,0.1,0,0.1,0c0.6-0.1,1.2-0.1,1.8-0.3c0,0,0.1,0,0.1,0v0
					c2.4-0.4,4.6-1.2,6.5-2.3l0.1-19.3C426.4,1452,424.1,1452.7,421.7,1453.2z"/>
			</g>
			<g id="XMLID_1853_">
				<path id="XMLID_1855_" class="st3" d="M628.3,1321.6c6.2,3.6,6.2,9.4,0.1,13l-200.1,116.3c-6.2,3.6-16.2,3.6-22.4,0L4.7,1219.2
					c-6.2-3.6-6.2-9.4-0.1-13L204.7,1090c6.2-3.6,16.2-3.6,22.4,0L628.3,1321.6z"/>
			</g>
			<g id="XMLID_1864_">
				<polygon id="XMLID_1868_" class="st4" points="357.5,1392.1 50.5,1214.9 220.7,1116.1 527.6,1293.3 				"/>
			</g>
		</g>
	</g>
	<path id="XMLID_77_" class="st5" d="M509.9,1349.7c13.6,7.7,13.6,20.2,0.2,27.8c-13.5,7.7-35.4,7.7-49,0
		c-13.6-7.7-13.6-20.1-0.2-27.8S496.3,1342,509.9,1349.7z"/>
	<path id="XMLID_88_" class="st4" d="M485.6,1385.6c-9.4,0-18.8-2.1-25.9-6.2c-7.2-4.1-11.1-9.7-11.2-15.7c0-6,3.9-11.5,11-15.6
		c14.2-8.3,37.5-8.3,51.8,0l0,0c7.2,4.1,11.1,9.7,11.1,15.7c0,6-3.9,11.5-11,15.6C504.3,1383.5,495,1385.6,485.6,1385.6z
		 M485.4,1344.1c-9,0-17.9,2-24.7,5.9c-6.3,3.7-9.8,8.5-9.8,13.6c0,5.1,3.6,10,10,13.7c13.7,7.9,35.9,7.9,49.5,0
		c6.3-3.7,9.8-8.5,9.8-13.6c0-5.1-3.6-10-10-13.7l0,0C503.3,1346.1,494.3,1344.1,485.4,1344.1z"/>
	<g id="XMLID_5_">
		<g id="XMLID_6_" class="st0">
			<g id="XMLID_31_">
				<polygon id="XMLID_32_" class="st6" points="318.1,1031.1 289.6,1014.6 288,439.7 316.5,456.3 				"/>
			</g>
			<g id="XMLID_20_">
				<polygon id="XMLID_22_" class="st7" points="316.5,456.3 288,439.7 1002.9,26.9 1031.5,43.5 				"/>
			</g>
			<g id="XMLID_66_">
				<polygon id="XMLID_116_" class="st8" points="1031.5,43.5 1033.1,618.3 318.1,1031.1 316.5,456.3 				"/>
			</g>
			<g id="XMLID_159_">
				<g id="XMLID_228_">
					<linearGradient id="XMLID_23_" gradientUnits="userSpaceOnUse" x1="409.7459" y1="674.6426" x2="942.4534" y2="375.7252">
						<stop  offset="0" style="stop-color:#7DC1FA"/>
						<stop  offset="1" style="stop-color:#5B4AED"/>
					</linearGradient>
					<polygon id="XMLID_229_" class="st9" points="997.4,109 997.4,570.6 351.6,943.2 351.6,481.5 					"/>
				</g>
			</g>
			<g id="XMLID_13_">
				<g id="XMLID_234_">
					<polygon id="XMLID_235_" class="st10" points="1010.6,122.2 1010.6,583.8 364.7,956.3 364.7,494.7 					"/>
				</g>
			</g>
			<g id="XMLID_19_">
				<g id="XMLID_237_">
					<polygon id="XMLID_241_" class="st10" points="982.2,109 982.2,570.6 336.4,943.2 336.4,481.5 					"/>
				</g>
			</g>
		</g>
	</g>
	<g id="XMLID_3_">
		<g id="XMLID_58_" class="st0">
			<g id="XMLID_59_">
				
					<image style="overflow:visible;" width="5612" height="3379" id="XMLID_304_" xlink:href="8FDEC8891B80A152.png"  transform="matrix(0.24 0 0 0.24 283.7241 654.413)">
				</image>
			</g>
			<g id="XMLID_208_">
				<polygon id="XMLID_1854_" class="st11" points="1591.5,911.6 875.6,1327.6 316.6,1004.9 1032.5,588.9 				"/>
			</g>
			<g id="XMLID_63_">
				<polygon id="XMLID_64_" class="st12" points="1591.5,911.6 1591.4,937.4 875.5,1353.4 875.6,1327.6 				"/>
			</g>
			<g id="XMLID_61_">
				<polygon id="XMLID_62_" class="st13" points="875.6,1327.6 875.5,1353.4 316.5,1030.7 316.6,1004.9 				"/>
			</g>
		</g>
	</g>
	<g id="XMLID_7_">
		<path id="XMLID_86_" class="st12" d="M494.5,1008.9l-42.4-24.5c-1-0.6-2.2-0.6-3.2,0l-41.6,24.2c-2.1,1.2-2.1,4.3,0,5.5l42.4,24.5
			c1,0.6,2.2,0.6,3.2,0l41.6-24.2C496.7,1013.1,496.7,1010.1,494.5,1008.9z"/>
		<path id="XMLID_85_" class="st12" d="M482.3,970.5l42.4,24.5c1,0.6,2.2,0.6,3.2,0l41.6-24.2c2.1-1.2,2.1-4.3,0-5.5l-42.4-24.5
			c-1-0.6-2.2-0.6-3.2,0L482.3,965C480.2,966.2,480.2,969.3,482.3,970.5z"/>
		<path id="XMLID_84_" class="st12" d="M554.7,928.7l42.4,24.5c1,0.6,2.2,0.6,3.2,0l41.6-24.2c2.1-1.2,2.1-4.3,0-5.5L599.5,899
			c-1-0.6-2.2-0.6-3.2,0l-41.6,24.2C552.5,924.4,552.5,927.5,554.7,928.7z"/>
		<path id="XMLID_83_" class="st12" d="M625.2,887.5l42.4,24.5c1,0.6,2.2,0.6,3.2,0l41.6-24.2c2.1-1.2,2.1-4.3,0-5.5L670,857.8
			c-1-0.6-2.2-0.6-3.2,0l-41.6,24.2C623.1,883.3,623.1,886.3,625.2,887.5z"/>
		<path id="XMLID_82_" class="st12" d="M700.1,843.9l42.4,24.5c1,0.6,2.2,0.6,3.2,0l41.6-24.2c2.1-1.2,2.1-4.3,0-5.5l-42.4-24.5
			c-1-0.6-2.2-0.6-3.2,0l-41.6,24.2C698,839.7,698,842.7,700.1,843.9z"/>
		<path id="XMLID_81_" class="st12" d="M772.4,802.1l42.4,24.5c1,0.6,2.2,0.6,3.2,0l41.6-24.2c2.1-1.2,2.1-4.3,0-5.5l-42.4-24.5
			c-1-0.6-2.2-0.6-3.2,0l-41.6,24.2C770.3,797.9,770.3,800.9,772.4,802.1z"/>
		<path id="XMLID_80_" class="st12" d="M840.9,759.4l42.4,24.5c1,0.6,2.2,0.6,3.2,0l41.6-24.2c2.1-1.2,2.1-4.3,0-5.5l-42.4-24.5
			c-1-0.6-2.2-0.6-3.2,0l-41.6,24.2C838.8,755.1,838.8,758.2,840.9,759.4z"/>
		<path id="XMLID_79_" class="st12" d="M915.8,715.8l42.4,24.5c1,0.6,2.2,0.6,3.2,0l41.6-24.2c2.1-1.2,2.1-4.3,0-5.5l-42.4-24.5
			c-1-0.6-2.2-0.6-3.2,0l-41.6,24.2C913.6,711.5,913.6,714.6,915.8,715.8z"/>
		<path id="XMLID_78_" class="st12" d="M988.1,674l42.4,24.5c1,0.6,2.2,0.6,3.2,0l41.6-24.2c2.1-1.2,2.1-4.3,0-5.5l-42.4-24.5
			c-1-0.6-2.2-0.6-3.2,0l-41.6,24.2C986,669.7,986,672.8,988.1,674z"/>
		<path id="XMLID_75_" class="st12" d="M576.8,1052.3l-42.4-24.5c-1-0.6-2.2-0.6-3.2,0l-41.6,24.2c-2.1,1.2-2.1,4.3,0,5.5L532,1082
			c1,0.6,2.2,0.6,3.2,0l41.6-24.2C578.9,1056.6,578.9,1053.6,576.8,1052.3z"/>
		<path id="XMLID_74_" class="st12" d="M606.2,984.3l-41.6,24.2c-2.1,1.2-2.1,4.3,0,5.5l42.4,24.5c1,0.6,2.2,0.6,3.2,0l41.6-24.2
			c2.1-1.2,2.1-4.3,0-5.5l-42.4-24.5C608.4,983.7,607.1,983.7,606.2,984.3z"/>
		<path id="XMLID_73_" class="st12" d="M678.5,942.5l-41.6,24.2c-2.1,1.2-2.1,4.3,0,5.5l42.4,24.5c1,0.6,2.2,0.6,3.2,0l41.6-24.2
			c2.1-1.2,2.1-4.3,0-5.5l-42.4-24.5C680.7,941.9,679.5,941.9,678.5,942.5z"/>
		<path id="XMLID_72_" class="st12" d="M749.1,901.3l-41.6,24.2c-2.1,1.2-2.1,4.3,0,5.5l42.4,24.5c1,0.6,2.2,0.6,3.2,0l41.6-24.2
			c2.1-1.2,2.1-4.3,0-5.5l-42.4-24.5C751.3,900.8,750.1,900.8,749.1,901.3z"/>
		<path id="XMLID_71_" class="st12" d="M824,857.7L782.3,882c-2.1,1.2-2.1,4.3,0,5.5l42.4,24.5c1,0.6,2.2,0.6,3.2,0l41.6-24.2
			c2.1-1.2,2.1-4.3,0-5.5l-42.4-24.5C826.1,857.2,824.9,857.2,824,857.7z"/>
		<path id="XMLID_70_" class="st12" d="M896.3,815.9l-41.6,24.2c-2.1,1.2-2.1,4.3,0,5.5l42.4,24.5c1,0.6,2.2,0.6,3.2,0l41.6-24.2
			c2.1-1.2,2.1-4.3,0-5.5l-42.4-24.5C898.5,815.4,897.3,815.4,896.3,815.9z"/>
		<path id="XMLID_69_" class="st12" d="M964.8,773.2l-41.6,24.2c-2.1,1.2-2.1,4.3,0,5.5l42.4,24.5c1,0.6,2.2,0.6,3.2,0l41.6-24.2
			c2.1-1.2,2.1-4.3,0-5.5l-42.4-24.5C967,772.6,965.7,772.6,964.8,773.2z"/>
		<path id="XMLID_68_" class="st12" d="M1085.2,754l-42.4-24.5c-1-0.6-2.2-0.6-3.2,0L998,753.8c-2.1,1.2-2.1,4.3,0,5.5l42.4,24.5
			c1,0.6,2.2,0.6,3.2,0l41.6-24.2C1087.3,758.3,1087.3,755.3,1085.2,754z"/>
		<path id="XMLID_67_" class="st12" d="M1070.4,717.5l42.4,24.5c1,0.6,2.2,0.6,3.2,0l41.6-24.2c2.1-1.2,2.1-4.3,0-5.5l-42.4-24.5
			c-1-0.6-2.2-0.6-3.2,0l-41.6,24.2C1068.3,713.2,1068.3,716.3,1070.4,717.5z"/>
		<path id="XMLID_65_" class="st12" d="M659.7,1100.9l-42.4-24.5c-1-0.6-2.2-0.6-3.2,0l-41.6,24.2c-2.1,1.2-2.1,4.3,0,5.5l42.4,24.5
			c1,0.6,2.2,0.6,3.2,0l41.6-24.2C661.9,1105.1,661.9,1102.1,659.7,1100.9z"/>
		<path id="XMLID_48_" class="st12" d="M647.5,1062.5l42.4,24.5c1,0.6,2.2,0.6,3.2,0l41.6-24.2c2.1-1.2,2.1-4.3,0-5.5l-42.4-24.5
			c-1-0.6-2.2-0.6-3.2,0l-41.6,24.2C645.4,1058.3,645.4,1061.3,647.5,1062.5z"/>
		<path id="XMLID_47_" class="st12" d="M765.4,1045.1l41.6-24.2c2.1-1.2,2.1-4.3,0-5.5L764.7,991c-1-0.6-2.2-0.6-3.2,0l-41.6,24.2
			c-2.1,1.2-2.1,4.3,0,5.5l42.4,24.5C763.2,1045.7,764.4,1045.7,765.4,1045.1z"/>
		<path id="XMLID_46_" class="st12" d="M835.9,1004l41.6-24.2c2.1-1.2,2.1-4.3,0-5.5l-42.4-24.5c-1-0.6-2.2-0.6-3.2,0l-41.6,24.2
			c-2.1,1.2-2.1,4.3,0,5.5l42.4,24.5C833.7,1004.6,834.9,1004.6,835.9,1004z"/>
		<path id="XMLID_45_" class="st12" d="M910.8,960.4l41.6-24.2c2.1-1.2,2.1-4.3,0-5.5l-42.4-24.5c-1-0.6-2.2-0.6-3.2,0l-41.6,24.2
			c-2.1,1.2-2.1,4.3,0,5.5l42.4,24.5C908.6,961,909.8,961,910.8,960.4z"/>
		<path id="XMLID_44_" class="st12" d="M983.2,918.6l41.6-24.2c2.1-1.2,2.1-4.3,0-5.5l-42.4-24.5c-1-0.6-2.2-0.6-3.2,0l-41.6,24.2
			c-2.1,1.2-2.1,4.3,0,5.5l42.4,24.5C981,919.2,982.2,919.2,983.2,918.6z"/>
		<path id="XMLID_43_" class="st12" d="M1051.6,875.9l41.6-24.2c2.1-1.2,2.1-4.3,0-5.5l-42.4-24.5c-1-0.6-2.2-0.6-3.2,0l-41.6,24.2
			c-2.1,1.2-2.1,4.3,0,5.5l42.4,24.5C1049.4,876.4,1050.6,876.4,1051.6,875.9z"/>
		<path id="XMLID_36_" class="st12" d="M1081,807.8l42.4,24.5c1,0.6,2.2,0.6,3.2,0l41.6-24.2c2.1-1.2,2.1-4.3,0-5.5l-42.4-24.5
			c-1-0.6-2.2-0.6-3.2,0l-41.6,24.2C1078.8,803.5,1078.8,806.6,1081,807.8z"/>
		<path id="XMLID_35_" class="st12" d="M1153.3,766l42.4,24.5c1,0.6,2.2,0.6,3.2,0l41.6-24.2c2.1-1.2,2.1-4.3,0-5.5l-42.4-24.5
			c-1-0.6-2.2-0.6-3.2,0l-41.6,24.2C1151.2,761.7,1151.2,764.8,1153.3,766z"/>
		<path id="XMLID_34_" class="st12" d="M749.6,1149.2l-42.4-24.5c-1-0.6-2.2-0.6-3.2,0l-41.6,24.2c-2.1,1.2-2.1,4.3,0,5.5l42.4,24.5
			c1,0.6,2.2,0.6,3.2,0l41.6-24.2C751.8,1153.4,751.7,1150.4,749.6,1149.2z"/>
		<path id="XMLID_33_" class="st12" d="M824.5,1105.6l-42.4-24.5c-1-0.6-2.2-0.6-3.2,0l-41.6,24.2c-2.1,1.2-2.1,4.3,0,5.5l42.4,24.5
			c1,0.6,2.2,0.6,3.2,0l41.6-24.2C826.6,1109.8,826.6,1106.8,824.5,1105.6z"/>
		<path id="XMLID_28_" class="st12" d="M896.9,1063.7l-42.4-24.5c-1-0.6-2.2-0.6-3.2,0l-41.6,24.2c-2.1,1.2-2.1,4.3,0,5.5l42.4,24.5
			c1,0.6,2.2,0.6,3.2,0l41.6-24.2C899,1068,899,1065,896.9,1063.7z"/>
		<path id="XMLID_26_" class="st12" d="M1106.4,939.8l-42.4-24.5c-1-0.6-2.2-0.6-3.2,0l-180.6,107.1c-2.1,1.2-2.1,4.3,0,5.5
			l42.4,24.5c1,0.6,2.2,0.6,3.2,0l180.6-107.1C1108.5,944,1108.5,941,1106.4,939.8z"/>
		<path id="XMLID_25_" class="st12" d="M1268.7,1033.1l-127.6-73.2c-2-1.1-4.4-1.1-6.4,0l-174.4,103.3c-4.2,2.5-4.1,8.5,0.1,10.9
			l127.6,73.2c2,1.1,4.4,1.1,6.4,0l174.4-103.3C1273,1041.6,1272.9,1035.5,1268.7,1033.1z"/>
		<path id="XMLID_21_" class="st12" d="M1096,899.7l42.4,24.5c1,0.6,2.2,0.6,3.2,0l41.6-24.2c2.1-1.2,2.1-4.3,0-5.5l-42.4-24.5
			c-1-0.6-2.2-0.6-3.2,0l-41.6,24.2C1093.9,895.4,1093.9,898.5,1096,899.7z"/>
		<path id="XMLID_9_" class="st12" d="M1216.4,880.5l41.6-24.2c2.1-1.2,2.1-4.3,0-5.5l-42.4-24.5c-1-0.6-2.2-0.6-3.2,0l-41.6,24.2
			c-2.1,1.2-2.1,4.3,0,5.5l42.4,24.5C1214.2,881.1,1215.4,881.1,1216.4,880.5z"/>
		<path id="XMLID_8_" class="st12" d="M1330.4,809l-42.4-24.5c-1-0.6-2.2-0.6-3.2,0l-41.6,24.2c-2.1,1.2-2.1,4.3,0,5.5l42.4,24.5
			c1,0.6,2.2,0.6,3.2,0l41.6-24.2C1332.5,813.3,1332.5,810.3,1330.4,809z"/>
	</g>
	<g id="XMLID_1808_">
		<g id="XMLID_1798_">
			<defs>
				<path id="XMLID_1799_" d="M214.3,862.2l20.5,14.4c-4.1-2.9-9.3-4.1-15.1-3.5l-20.5-14.4C205,858.1,210.2,859.3,214.3,862.2z"/>
			</defs>
			<use xlink:href="#XMLID_1799_"  style="overflow:visible;fill:#E59328;"/>
			<clipPath id="XMLID_24_">
				<use xlink:href="#XMLID_1799_"  style="overflow:visible;"/>
			</clipPath>
			<g id="XMLID_1800_" class="st14">
				<path id="XMLID_1807_" class="st15" d="M219.6,873l-20.5-14.4c0.9-0.1,1.8-0.1,2.7-0.1l20.5,14.4
					C221.4,872.9,220.5,873,219.6,873"/>
				<path id="XMLID_1806_" class="st15" d="M222.3,872.9l-20.5-14.4c0.9,0,1.8,0,2.7,0.1L225,873
					C224.1,872.9,223.2,872.9,222.3,872.9"/>
				<path id="XMLID_1805_" class="st15" d="M225,873l-20.5-14.4c0.8,0.1,1.6,0.2,2.4,0.4l20.5,14.4C226.6,873.2,225.8,873.1,225,873
					"/>
				<path id="XMLID_1804_" class="st15" d="M227.4,873.4L206.9,859c0.7,0.2,1.5,0.3,2.2,0.6l20.5,14.4
					C228.9,873.7,228.1,873.5,227.4,873.4"/>
				<path id="XMLID_1803_" class="st15" d="M229.6,874l-20.5-14.4c0.7,0.2,1.3,0.5,2,0.8l20.5,14.4
					C230.9,874.4,230.2,874.2,229.6,874"/>
				<path id="XMLID_1802_" class="st15" d="M231.5,874.7L211,860.4c0.6,0.3,1.2,0.6,1.8,0.9l20.5,14.4
					C232.8,875.3,232.2,875,231.5,874.7"/>
				<path id="XMLID_1801_" class="st15" d="M233.4,875.7l-20.5-14.4c0.5,0.3,0.9,0.6,1.4,0.9l20.5,14.4
					C234.3,876.2,233.9,875.9,233.4,875.7"/>
			</g>
		</g>
		<g id="XMLID_203_">
			<g>
				<defs>
					<path id="XMLID_414_" d="M101.7,1001.1l-20.5-14.4c-5.1-3.6-8.3-10.1-8.3-18.8c0-16.2,10.6-34.9,25-45.3l20.5,14.4
						c-14.3,10.4-25,29.1-25,45.3C93.5,991,96.6,997.5,101.7,1001.1z"/>
				</defs>
				<clipPath id="XMLID_27_">
					<use xlink:href="#XMLID_414_"  style="overflow:visible;"/>
				</clipPath>
			</g>
			<g>
				<defs>
					<path id="XMLID_397_" d="M101.7,1001.1l-20.5-14.4c-5.1-3.6-8.3-10.1-8.3-18.8c0-16.2,10.6-34.9,25-45.3l20.5,14.4
						c-14.3,10.4-25,29.1-25,45.3C93.5,991,96.6,997.5,101.7,1001.1z"/>
				</defs>
				<use xlink:href="#XMLID_397_"  style="overflow:visible;fill:#E59328;"/>
				<clipPath id="XMLID_30_">
					<use xlink:href="#XMLID_397_"  style="overflow:visible;"/>
				</clipPath>
				<g id="XMLID_398_" class="st16">
					<path id="XMLID_413_" class="st15" d="M101.7,1001.1l-20.5-14.4c-5.1-3.6-8.3-10.1-8.3-18.8c0-2.8,0.3-5.7,0.9-8.6l20.5,14.4
						c-0.6,2.9-0.9,5.8-0.9,8.6C93.5,991,96.6,997.5,101.7,1001.1"/>
					<path id="XMLID_412_" class="st15" d="M94.4,973.7l-20.5-14.4c0.3-1.4,0.6-2.8,1.1-4.2l20.5,14.4
						C95,970.9,94.7,972.3,94.4,973.7"/>
					<path id="XMLID_411_" class="st15" d="M95.4,969.4l-20.5-14.4c0.3-1.1,0.7-2.3,1.1-3.4l20.5,14.4
						C96.1,967.2,95.8,968.3,95.4,969.4"/>
					<path id="XMLID_410_" class="st15" d="M96.6,966.1l-20.5-14.4c0.4-1,0.8-2,1.2-3l20.5,14.4C97.3,964.1,96.9,965.1,96.6,966.1"
						/>
					<path id="XMLID_409_" class="st15" d="M97.8,963.1l-20.5-14.4c0.4-0.9,0.8-1.8,1.3-2.8L99,960.3
						C98.6,961.2,98.2,962.2,97.8,963.1"/>
					<path id="XMLID_408_" class="st15" d="M99,960.3L78.5,946c0.4-0.9,0.9-1.7,1.4-2.6l20.5,14.4C99.9,958.6,99.5,959.5,99,960.3"
						/>
					<path id="XMLID_407_" class="st15" d="M100.4,957.7l-20.5-14.4c0.5-0.8,0.9-1.7,1.4-2.5l20.5,14.4
						C101.3,956.1,100.8,956.9,100.4,957.7"/>
					<path id="XMLID_406_" class="st15" d="M101.8,955.2l-20.5-14.4c0.5-0.8,1-1.6,1.5-2.4l20.5,14.4
						C102.8,953.6,102.3,954.4,101.8,955.2"/>
					<path id="XMLID_405_" class="st15" d="M103.4,952.8l-20.5-14.4c0.5-0.8,1.1-1.6,1.7-2.4l20.5,14.4
						C104.5,951.2,103.9,952,103.4,952.8"/>
					<path id="XMLID_404_" class="st15" d="M105,950.4l-20.5-14.4c0.6-0.8,1.2-1.6,1.8-2.4l20.5,14.4
						C106.2,948.8,105.6,949.6,105,950.4"/>
					<path id="XMLID_403_" class="st15" d="M106.9,948.1l-20.5-14.4c0.7-0.8,1.3-1.6,2-2.4l20.5,14.4
						C108.2,946.4,107.5,947.3,106.9,948.1"/>
					<path id="XMLID_402_" class="st15" d="M108.9,945.7l-20.5-14.4c0.8-0.9,1.5-1.7,2.3-2.5l20.5,14.4
						C110.4,944,109.7,944.8,108.9,945.7"/>
					<path id="XMLID_401_" class="st15" d="M111.2,943.2l-20.5-14.4c0.9-0.9,1.8-1.8,2.8-2.7l20.5,14.4
						C113.1,941.4,112.1,942.2,111.2,943.2"/>
					<path id="XMLID_400_" class="st15" d="M114,940.5l-20.5-14.4c1.3-1.1,2.6-2.2,3.9-3.2l20.5,14.4
						C116.6,938.3,115.3,939.4,114,940.5"/>
					<path id="XMLID_399_" class="st15" d="M117.9,937.3L97.4,923c0.2-0.1,0.3-0.2,0.5-0.4l20.5,14.4
						C118.3,937.1,118.1,937.2,117.9,937.3"/>
				</g>
			</g>
			<g>
				<defs>
					<path id="XMLID_380_" d="M101.7,1001.1l-20.5-14.4c-5.1-3.6-8.3-10.1-8.3-18.8c0-16.2,10.6-34.9,25-45.3l20.5,14.4
						c-14.3,10.4-25,29.1-25,45.3C93.5,991,96.6,997.5,101.7,1001.1z"/>
				</defs>
				<clipPath id="XMLID_37_">
					<use xlink:href="#XMLID_380_"  style="overflow:visible;"/>
				</clipPath>
			</g>
		</g>
		<g id="XMLID_176_" class="st0">
			<path id="XMLID_202_" class="st17" d="M118.4,937l-20.5-14.4c0.2-3.1,0.7-6.3,1.3-9.4l20.5,14.4
				C119.1,930.7,118.7,933.8,118.4,937"/>
			<path id="XMLID_201_" class="st18" d="M119.8,927.5l-20.5-14.4c0.5-2.3,1-4.5,1.7-6.8l20.5,14.4
				C120.8,923,120.2,925.2,119.8,927.5"/>
			<path id="XMLID_200_" class="st19" d="M121.5,920.7L101,906.3c0.6-1.9,1.2-3.7,1.9-5.6l20.5,14.4
				C122.6,917,122,918.9,121.5,920.7"/>
			<path id="XMLID_198_" class="st20" d="M123.3,915.2l-20.5-14.4c0.6-1.6,1.3-3.3,2-4.9l20.5,14.4
				C124.6,911.9,123.9,913.5,123.3,915.2"/>
			<path id="XMLID_196_" class="st21" d="M125.3,910.3l-20.5-14.4c0.6-1.5,1.3-3,2.1-4.5l20.5,14.4
				C126.6,907.3,125.9,908.8,125.3,910.3"/>
			<path id="XMLID_194_" class="st22" d="M127.3,905.8l-20.5-14.4c0.7-1.4,1.4-2.8,2.2-4.2l20.5,14.4
				C128.8,903,128,904.4,127.3,905.8"/>
			<path id="XMLID_180_" class="st23" d="M151.6,873.7l-20.5-14.4c2-1.8,4.1-3.5,6.3-5.1l20.5,14.4
				C155.8,870.2,153.7,871.9,151.6,873.7"/>
			<radialGradient id="XMLID_39_" cx="153.8056" cy="889.0278" r="52.0506" gradientUnits="userSpaceOnUse">
				<stop  offset="0" style="stop-color:#FE8F2A"/>
				<stop  offset="1" style="stop-color:#FEB22A"/>
			</radialGradient>
			<path id="XMLID_178_" class="st24" d="M165.1,863.8c0.3-0.2,0.6-0.4,0.9-0.5c1.5-0.9,3-1.7,4.5-2.4c1.7-0.8,3.3-1.5,4.9-2.1
				c0.2-0.1,0.3-0.1,0.5-0.2c1.5-0.6,3-1,4.5-1.5c0.3-0.1,0.6-0.2,0.8-0.2c0.7-0.2,1.4-0.3,2.1-0.5c0.3-0.1,0.6-0.1,0.9-0.2
				c1-0.2,2-0.4,2.9-0.5c0,0,0.1,0,0.1,0c1.5-0.2,2.9-0.3,4.3-0.3c0.1,0,0.3,0,0.5,0c1.1,0,2.3,0.1,3.4,0.2c0.3,0,0.5,0.1,0.8,0.1
				c0.9,0.1,1.7,0.2,2.6,0.4c0.2,0,0.3,0.1,0.5,0.1c0.9,0.2,1.8,0.4,2.7,0.7c0.2,0.1,0.5,0.2,0.7,0.2c0.7,0.2,1.3,0.5,1.9,0.7
				c0.2,0.1,0.5,0.2,0.7,0.3c0.7,0.3,1.4,0.7,2.1,1c0.1,0.1,0.2,0.1,0.3,0.2c0.7,0.4,1.3,0.8,1.9,1.2l-20.5-14.4
				c-0.6-0.4-1.3-0.8-1.9-1.2c0,0,0,0-0.1,0c-0.1,0-0.2-0.1-0.3-0.1c-0.7-0.4-1.4-0.7-2.1-1c-0.1,0-0.2-0.1-0.3-0.2
				c-0.1-0.1-0.3-0.1-0.4-0.2c-0.6-0.3-1.3-0.5-1.9-0.7c-0.2-0.1-0.3-0.1-0.5-0.2c-0.1,0-0.2,0-0.2-0.1c-0.9-0.3-1.8-0.5-2.7-0.7
				c0,0-0.1,0-0.1,0c-0.1,0-0.2,0-0.4-0.1c-0.8-0.2-1.7-0.3-2.6-0.4c-0.1,0-0.3-0.1-0.4-0.1c-0.1,0-0.2,0-0.3,0
				c-1.1-0.1-2.2-0.2-3.4-0.2c-0.1,0-0.1,0-0.1,0c-0.1,0-0.2,0-0.3,0c-1.4,0-2.8,0.1-4.3,0.3c0,0,0,0-0.1,0c0,0,0,0,0,0
				c-1,0.1-1.9,0.3-2.9,0.5c-0.3,0.1-0.6,0.1-0.9,0.2c-0.7,0.1-1.4,0.3-2.1,0.5c-0.1,0-0.3,0.1-0.4,0.1c-0.1,0-0.3,0.1-0.4,0.1
				c-1.5,0.4-3,0.9-4.5,1.5c-0.2,0.1-0.3,0.1-0.5,0.2c-1.6,0.6-3.2,1.3-4.9,2.1c-1.5,0.7-3,1.5-4.5,2.4c-0.3,0.2-0.6,0.3-0.9,0.5
				c-2.5,1.5-4.9,3.1-7.3,4.8l0.1,0c-2.2,1.6-4.3,3.3-6.3,5.1l0,0c-0.1,0.1-0.2,0.2-0.3,0.3c-0.9,0.8-1.7,1.6-2.6,2.4
				c-0.6,0.6-1.2,1.1-1.7,1.6c-0.1,0.1-0.1,0.1-0.2,0.2c-0.4,0.4-0.8,0.9-1.2,1.3c-0.8,0.8-1.6,1.6-2.3,2.5
				c-0.2,0.2-0.3,0.4-0.5,0.5c-0.4,0.5-0.8,1-1.2,1.4c-0.5,0.6-1.1,1.3-1.6,1.9c-0.3,0.4-0.6,0.8-0.9,1.1c-0.4,0.5-0.8,1-1.2,1.5
				c-0.3,0.4-0.6,0.8-0.9,1.2c-0.5,0.7-1,1.4-1.5,2.2c-0.3,0.4-0.6,0.8-0.9,1.2c-0.1,0.2-0.2,0.3-0.3,0.5c-0.9,1.3-1.7,2.6-2.5,3.9
				c-0.1,0.1-0.1,0.2-0.2,0.3c-0.2,0.3-0.3,0.6-0.5,0.9c-0.6,1-1.1,1.9-1.7,2.9l0,0c-6.3,11.4-10.3,23.6-11.1,35.3l20.5,14.4
				c0.9-12.7,5.6-26,12.7-38.2c0.2-0.3,0.3-0.6,0.5-0.9c1-1.6,2-3.1,3-4.7c0.3-0.4,0.6-0.8,0.9-1.2c0.8-1.1,1.6-2.3,2.4-3.4
				c0.4-0.5,0.8-1,1.2-1.5c0.8-1,1.6-2,2.5-3c0.4-0.5,0.8-1,1.2-1.4c0.9-1,1.8-2,2.8-3c0.4-0.4,0.8-0.9,1.2-1.3
				c0.6-0.6,1.3-1.2,1.9-1.9c0.9-0.8,1.7-1.7,2.6-2.4c2.9-2.6,6-5.1,9.2-7.2c0.1,0,0.1-0.1,0.2-0.1
				C162.1,865.6,163.6,864.7,165.1,863.8z"/>
		</g>
		<g id="XMLID_144_">
			<path id="XMLID_175_" class="st25" d="M170.6,860.9c22.4-10.7,41.4-5.1,49.1,12.1c14.2-1.5,24.5,7.9,24.5,24.8
				c0.1,21.4-16.3,46.6-36.6,56.3c-6,2.9-11.6,4-16.6,3.7c-6.2,5.7-13,10.5-20.1,13.9c-7.3,3.5-14.2,5.2-20.5,5.4
				c-5.9,10.2-14.7,19-24.5,23.7c-17.9,8.6-32.4,0.2-32.4-18.7c0-16.2,10.6-34.9,25-45.3C120.5,907.4,143,874.1,170.6,860.9z"/>
		</g>
	</g>
	<g id="XMLID_143_">
		<g id="XMLID_171_" class="st0">
			<path id="XMLID_206_" class="st26" d="M1183.6,1.5c-0.1-0.1-0.2-0.1-0.4-0.2c-0.2-0.1-0.3-0.2-0.5-0.2c-0.1,0-0.2-0.1-0.3-0.1
				c0,0,0,0-0.1,0c0,0-0.1,0-0.1,0c-0.2-0.1-0.3-0.1-0.4-0.2c-0.2-0.1-0.3-0.1-0.5-0.2c0,0-0.1,0-0.1,0c0,0,0,0-0.1,0
				c-0.1,0-0.2-0.1-0.3-0.1c-0.2,0-0.3-0.1-0.5-0.1c-0.1,0-0.1,0-0.2,0c0,0-0.1,0-0.1,0c0,0-0.1,0-0.1,0c-0.2,0-0.3-0.1-0.5-0.1
				c-0.1,0-0.2,0-0.3,0c0,0-0.1,0-0.1,0c0,0-0.1,0-0.1,0c-0.2,0-0.4,0-0.5,0c-0.1,0-0.2,0-0.2,0c-0.1,0-0.1,0-0.2,0
				c-0.1,0-0.1,0-0.2,0c-0.2,0-0.4,0.1-0.6,0.1c0,0,0,0,0,0c0,0-0.1,0-0.1,0c-0.2,0-0.4,0.1-0.6,0.2c0,0,0,0,0,0
				c-0.3,0.1-0.6,0.2-0.9,0.4l-22.3,13c0.3-0.2,0.6-0.3,0.9-0.4c0.2-0.1,0.5-0.1,0.7-0.2c0,0,0.1,0,0.1,0c0.3-0.1,0.6-0.1,0.8-0.1
				c0.1,0,0.1,0,0.2,0c0.3,0,0.6,0,0.9,0c0,0,0.1,0,0.1,0c0.3,0,0.6,0.1,0.9,0.1c0,0,0.1,0,0.1,0c0.3,0.1,0.7,0.2,1,0.3
				c0,0,0,0,0.1,0c0.3,0.1,0.7,0.3,1.1,0.4c0,0,0,0,0.1,0c0.4,0.2,0.7,0.4,1.1,0.6l195.3,112.8l22.3-13L1183.6,1.5z"/>
			<g id="XMLID_179_" class="st0">
				<path id="XMLID_1836_" class="st27" d="M1356.6,127.3l22.3-13c0,0,0.1,0,0.1,0.1l-22.3,13
					C1356.7,127.3,1356.6,127.3,1356.6,127.3"/>
				<path id="XMLID_1835_" class="st28" d="M1356.7,127.3l22.3-13c0.2,0.1,0.3,0.2,0.5,0.3l-22.3,13
					C1357,127.5,1356.9,127.4,1356.7,127.3"/>
				<path id="XMLID_1834_" class="st29" d="M1357.2,127.6l22.3-13c0.2,0.1,0.3,0.2,0.5,0.3l-22.3,13
					C1357.5,127.8,1357.3,127.7,1357.2,127.6"/>
				<path id="XMLID_1833_" class="st30" d="M1357.6,127.9l22.3-13c0.2,0.1,0.3,0.2,0.5,0.3l-22.3,13
					C1358,128.2,1357.8,128,1357.6,127.9"/>
				<path id="XMLID_1832_" class="st31" d="M1358.1,128.3l22.3-13c0.2,0.1,0.3,0.2,0.5,0.4l-22.3,13
					C1358.5,128.5,1358.3,128.4,1358.1,128.3"/>
				<path id="XMLID_1831_" class="st32" d="M1358.6,128.7l22.3-13c0.2,0.1,0.3,0.3,0.5,0.4l-22.3,13
					C1359,128.9,1358.8,128.8,1358.6,128.7"/>
				<path id="XMLID_1830_" class="st33" d="M1359.1,129.1l22.3-13c0.2,0.1,0.3,0.3,0.5,0.4l-22.3,13
					C1359.5,129.3,1359.3,129.2,1359.1,129.1"/>
				<path id="XMLID_1829_" class="st34" d="M1359.6,129.5l22.3-13c0.2,0.1,0.3,0.3,0.5,0.5l-22.3,13
					C1359.9,129.8,1359.8,129.6,1359.6,129.5"/>
				<path id="XMLID_1828_" class="st35" d="M1360.1,130l22.3-13c0.2,0.2,0.3,0.3,0.5,0.5l-22.3,13
					C1360.4,130.3,1360.3,130.1,1360.1,130"/>
				<path id="XMLID_1827_" class="st36" d="M1360.6,130.4l22.3-13c0.2,0.2,0.3,0.3,0.5,0.5l-22.3,13
					C1360.9,130.7,1360.7,130.6,1360.6,130.4"/>
				<path id="XMLID_1826_" class="st37" d="M1361,130.9l22.3-13c0.1,0.2,0.3,0.3,0.4,0.5l-22.3,13
					C1361.3,131.2,1361.2,131.1,1361,130.9"/>
				<path id="XMLID_1825_" class="st38" d="M1361.5,131.4l22.3-13c0.1,0.2,0.3,0.3,0.4,0.5l-22.3,13
					C1361.8,131.7,1361.6,131.6,1361.5,131.4"/>
				<path id="XMLID_1824_" class="st39" d="M1361.9,131.9l22.3-13c0.1,0.2,0.3,0.4,0.4,0.5l-22.3,13
					C1362.2,132.2,1362.1,132.1,1361.9,131.9"/>
				<path id="XMLID_1823_" class="st40" d="M1362.3,132.4l22.3-13c0.2,0.2,0.3,0.4,0.5,0.7l-22.3,13
					C1362.7,132.9,1362.5,132.6,1362.3,132.4"/>
				<path id="XMLID_1822_" class="st41" d="M1362.8,133.1l22.3-13c0.2,0.3,0.5,0.7,0.7,1l-22.3,13
					C1363.3,133.7,1363.1,133.4,1362.8,133.1"/>
				<path id="XMLID_210_" class="st42" d="M1390.1,133.2c0-0.2,0-0.4,0-0.5c0-0.1,0-0.2,0-0.2c0,0,0-0.1,0-0.1c0-0.1,0-0.1,0-0.2
					c0-0.2,0-0.4-0.1-0.5c0-0.2-0.1-0.4-0.1-0.6c0,0,0,0,0,0c0,0,0,0,0,0c0-0.2-0.1-0.4-0.1-0.5c0-0.2-0.1-0.4-0.1-0.6
					c0-0.1,0-0.1,0-0.2c0,0,0-0.1,0-0.1c0-0.1,0-0.2-0.1-0.3c0-0.2-0.1-0.4-0.2-0.6c0-0.1-0.1-0.3-0.1-0.4c0,0,0-0.1,0-0.1
					c0,0,0-0.1,0-0.1c-0.1-0.2-0.1-0.4-0.2-0.6c-0.1-0.2-0.1-0.4-0.2-0.6c0,0,0-0.1,0-0.1c0,0,0-0.1,0-0.1c0-0.1-0.1-0.2-0.1-0.4
					c-0.1-0.2-0.1-0.4-0.2-0.5c-0.1-0.1-0.1-0.3-0.2-0.4c0,0,0,0,0-0.1c0,0,0-0.1,0-0.1c-0.1-0.2-0.2-0.4-0.2-0.5
					c-0.1-0.2-0.2-0.4-0.3-0.6c0,0,0-0.1,0-0.1c0,0,0-0.1-0.1-0.1c-0.1-0.2-0.2-0.3-0.2-0.5c-0.1-0.2-0.2-0.4-0.3-0.6
					c-0.1-0.1-0.1-0.2-0.2-0.3c0,0,0-0.1-0.1-0.1c-0.1-0.2-0.2-0.3-0.3-0.5c-0.2-0.2-0.3-0.5-0.5-0.7c0,0,0-0.1-0.1-0.1l0,0
					c-1.9-2.9-4.3-5.3-7-6.8l-22.3,13c2.7,1.5,5.1,4,7,6.9c0.2,0.2,0.3,0.5,0.5,0.7c0.1,0.2,0.3,0.4,0.4,0.6
					c0.1,0.1,0.1,0.2,0.2,0.3c0.2,0.3,0.4,0.7,0.6,1c0,0,0,0.1,0.1,0.1c0.2,0.4,0.4,0.9,0.6,1.3c0,0,0,0,0,0.1
					c0.2,0.4,0.4,0.9,0.5,1.3c0,0,0,0.1,0,0.1c0.2,0.4,0.3,0.9,0.4,1.3c0,0,0,0.1,0,0.1c0.1,0.4,0.2,0.9,0.3,1.3c0,0,0,0.1,0,0.1
					c0.1,0.4,0.2,0.9,0.3,1.3c0,0,0,0,0,0c0.1,0.4,0.1,0.9,0.2,1.3c0,0,0,0.1,0,0.1c0,0.4,0.1,0.9,0.1,1.3l-0.6,224.4
					c0,0.4,0,0.8-0.1,1.2c0,0,0,0.1,0,0.1c0,0.4-0.1,0.7-0.2,1c0,0,0,0.1,0,0.1c-0.1,0.3-0.1,0.6-0.2,0.9c0,0.1,0,0.1-0.1,0.2
					c-0.1,0.3-0.2,0.5-0.3,0.8c0,0,0,0.1,0,0.1c-0.1,0.3-0.3,0.6-0.4,0.8c-0.2,0.4-0.5,0.7-0.8,1c-0.1,0.1-0.1,0.1-0.2,0.2
					c-0.3,0.3-0.6,0.5-0.9,0.7l22.3-13c0.3-0.2,0.7-0.4,0.9-0.7c0.1-0.1,0.1-0.1,0.2-0.2c0.3-0.3,0.5-0.6,0.8-1c0,0,0,0,0,0
					c0.2-0.2,0.3-0.5,0.4-0.8c0,0,0,0,0,0c0,0,0-0.1,0-0.1c0.1-0.2,0.2-0.3,0.2-0.5c0-0.1,0.1-0.2,0.1-0.3c0-0.1,0-0.1,0.1-0.2
					c0-0.1,0-0.1,0-0.1c0.1-0.2,0.1-0.4,0.1-0.6c0-0.1,0-0.1,0-0.2c0,0,0-0.1,0-0.1c0-0.1,0-0.1,0-0.2c0-0.2,0.1-0.4,0.1-0.5
					c0-0.1,0-0.2,0-0.3c0,0,0-0.1,0-0.1c0,0,0-0.1,0-0.1c0-0.2,0-0.4,0-0.5c0-0.2,0-0.4,0-0.5c0,0,0,0,0,0l0.6-224.4
					C1390.1,133.5,1390.1,133.4,1390.1,133.2z"/>
			</g>
			<g id="XMLID_172_">
				<g id="XMLID_238_">
					<path id="XMLID_240_" class="st43" d="M1356.6,127.3c6.2,3.6,11.2,12.3,11.2,19.4l-0.6,224.4c0,7.1-5.1,10-11.3,6.4
						l-195.3-112.8c-6.2-3.6-11.2-12.2-11.2-19.4l0.6-224.4c0-7.1,5.1-10,11.3-6.4L1356.6,127.3z"/>
				</g>
			</g>
		</g>
	</g>
	<g id="XMLID_170_">
		<path id="XMLID_192_" class="st44" d="M1226.5,146.6c-0.1,0-0.1-0.1-0.2-0.1c0,0,0,0,0,0c-0.4-0.2-0.7-0.4-1.1-0.6
			c-0.3-0.1-0.5-0.3-0.7-0.4c-0.1-0.1-0.2-0.1-0.3-0.2c-0.1-0.1-0.2-0.1-0.3-0.2c-0.5-0.2-0.9-0.4-1.4-0.7c-0.5-0.2-0.9-0.4-1.4-0.6
			c-0.5-0.2-0.9-0.4-1.4-0.5c-0.5-0.2-0.9-0.3-1.4-0.5l0,0l0,0l0,0c-0.1,0-0.2-0.1-0.3-0.1c-0.2-0.1-0.4-0.1-0.6-0.2
			c-0.2,0-0.3-0.1-0.5-0.1c-0.2,0-0.3-0.1-0.5-0.1c-0.2,0-0.4-0.1-0.6-0.1c-0.1,0-0.2-0.1-0.3-0.1c-0.2,0-0.4-0.1-0.6-0.1
			c-0.2,0-0.5-0.1-0.7-0.1c-0.1,0-0.2,0-0.2,0c-0.2,0-0.4,0-0.6-0.1c-0.2,0-0.5-0.1-0.7-0.1c-0.1,0-0.1,0-0.2,0c-0.2,0-0.3,0-0.5,0
			c-0.3,0-0.6,0-0.9,0c-0.1,0-0.2,0-0.2,0c-0.1,0-0.2,0-0.4,0c-0.4,0-0.7,0-1.1,0.1c-0.1,0-0.2,0-0.3,0c-0.1,0-0.2,0-0.2,0
			c-0.5,0.1-1.1,0.1-1.6,0.2c0,0-0.1,0-0.1,0c0,0,0,0,0,0c-0.1,0-0.2,0.1-0.3,0.1c-0.3,0.1-0.7,0.1-1,0.2c-0.2,0-0.3,0.1-0.5,0.1
			c-0.2,0.1-0.4,0.1-0.6,0.2c-0.1,0-0.1,0-0.1,0.1c-0.3,0.1-0.6,0.2-0.9,0.4c-0.1,0.1-0.3,0.1-0.4,0.2c-0.4,0.2-0.9,0.4-1.3,0.7
			l-17,9.9c0.4-0.2,0.8-0.5,1.3-0.7c0.1-0.1,0.3-0.1,0.4-0.2c0.3-0.1,0.6-0.3,0.9-0.4c0.3-0.1,0.5-0.2,0.8-0.3
			c0.2,0,0.3-0.1,0.5-0.1c0.3-0.1,0.6-0.2,1-0.2c0.1,0,0.2-0.1,0.3-0.1c0.1,0,0.1,0,0.2,0c0.5-0.1,1.1-0.2,1.6-0.2
			c0.2,0,0.4,0,0.6,0c0.4,0,0.7,0,1.1-0.1c0.2,0,0.4,0,0.6,0c0.3,0,0.6,0,0.9,0c0.2,0,0.5,0,0.7,0c0.2,0,0.5,0,0.7,0.1
			c0.3,0,0.5,0.1,0.8,0.1c0.2,0,0.5,0.1,0.7,0.1c0.3,0.1,0.6,0.1,0.9,0.2c0.2,0,0.4,0.1,0.6,0.1c0.3,0.1,0.6,0.2,1,0.2
			c0.2,0.1,0.4,0.1,0.6,0.2c0.7,0.2,1.3,0.4,2,0.7c0,0,0,0,0,0c0.6,0.2,1.3,0.5,1.9,0.8c0.1,0,0.1,0.1,0.2,0.1
			c0.6,0.3,1.3,0.6,1.9,0.9c0.1,0.1,0.2,0.1,0.3,0.2c0.6,0.3,1.3,0.7,1.9,1c0.1,0,0.1,0.1,0.2,0.1c0.1,0,0.1,0.1,0.2,0.1
			c0,0,0,0,0,0l17-9.9C1226.6,146.7,1226.6,146.7,1226.5,146.6z"/>
		<g id="XMLID_1907_" class="st0">
			<path id="XMLID_1925_" class="st45" d="M1219.9,145.2l17-9.9c1.3-0.7,2.6-1.4,4-1.9l-17,9.9
				C1222.6,143.8,1221.2,144.5,1219.9,145.2"/>
		</g>
		<g id="XMLID_1861_" class="st0">
			<path id="XMLID_1904_" class="st46" d="M1303.6,226.6l17-9.9c0.1,0.1,0.2,0.1,0.3,0.2l-17,9.9
				C1303.8,226.7,1303.7,226.7,1303.6,226.6"/>
			<path id="XMLID_188_" class="st44" d="M1342.3,259.3c0-0.4,0-0.9-0.1-1.3c0-0.1,0-0.1,0-0.2c0-0.1,0-0.2,0-0.2
				c0-0.3,0-0.6-0.1-0.9c0-0.5-0.1-0.9-0.2-1.4c0-0.1,0-0.3-0.1-0.4c0-0.1,0-0.2,0-0.3c0-0.2-0.1-0.5-0.1-0.7
				c-0.1-0.5-0.2-0.9-0.2-1.4c0-0.2-0.1-0.4-0.1-0.5c0-0.1,0-0.2-0.1-0.3c0-0.2-0.1-0.4-0.1-0.6c-0.1-0.5-0.2-1-0.3-1.5
				c-0.1-0.2-0.1-0.4-0.2-0.6c0-0.1-0.1-0.2-0.1-0.4c0-0.2-0.1-0.3-0.1-0.5c-0.1-0.5-0.3-1-0.4-1.5c-0.1-0.2-0.1-0.5-0.2-0.7
				c0-0.1-0.1-0.2-0.1-0.3c0-0.1-0.1-0.3-0.1-0.4c-0.2-0.5-0.3-0.9-0.5-1.4c-0.1-0.3-0.2-0.6-0.3-0.9c0-0.1-0.1-0.2-0.1-0.3
				c0-0.1-0.1-0.2-0.1-0.3c-0.2-0.5-0.4-0.9-0.5-1.3c-0.2-0.4-0.4-0.8-0.5-1.2c0,0,0,0,0,0c0,0,0,0,0,0c-0.2-0.5-0.4-0.9-0.6-1.4
				c-0.2-0.5-0.4-0.9-0.7-1.4c0,0,0-0.1,0-0.1c0-0.1-0.1-0.1-0.1-0.2c-0.2-0.5-0.5-1-0.7-1.4c-0.1-0.3-0.3-0.5-0.4-0.8
				c-0.2-0.3-0.4-0.7-0.6-1c-0.1-0.2-0.2-0.4-0.4-0.6c-0.1-0.2-0.3-0.4-0.4-0.6c-0.5-0.8-0.9-1.5-1.4-2.2c-0.1-0.2-0.3-0.4-0.4-0.7
				c-0.1-0.2-0.2-0.3-0.3-0.5c-0.2-0.4-0.5-0.7-0.7-1.1c-0.2-0.3-0.4-0.6-0.6-0.9l0,0c-2.8-3.8-6-7.3-9.5-10.2l-17,9.9
				c3.7,3.1,7.1,6.9,10.1,11.1c0.2,0.3,0.5,0.7,0.7,1.1c0.3,0.4,0.5,0.8,0.7,1.1c0.5,0.7,1,1.5,1.4,2.2c0.3,0.4,0.5,0.8,0.7,1.3
				c0.2,0.3,0.4,0.7,0.6,1c0.4,0.7,0.8,1.4,1.2,2.2c0,0.1,0.1,0.1,0.1,0.2c0.5,0.9,0.9,1.9,1.4,2.9c0,0,0,0,0,0
				c0.4,0.9,0.8,1.9,1.2,2.8c0,0.1,0.1,0.2,0.1,0.3c0.3,0.9,0.7,1.8,1,2.7c0,0.1,0.1,0.2,0.1,0.3c0.3,0.9,0.5,1.8,0.8,2.7
				c0,0.1,0.1,0.2,0.1,0.4c0.2,0.9,0.4,1.8,0.6,2.6c0,0.1,0,0.2,0.1,0.3c0.2,0.9,0.3,1.8,0.5,2.6c0,0.1,0,0.2,0,0.3
				c0.1,0.9,0.2,1.8,0.3,2.7c0,0.1,0,0.2,0,0.2c0.1,0.9,0.1,1.9,0.1,2.8c0,0.5,0,1,0,1.5c0,0.1,0,0.3,0,0.4c0,0.3,0,0.7-0.1,1
				c0,0.2,0,0.4-0.1,0.6c0,0.3-0.1,0.6-0.1,0.8c0,0.2-0.1,0.4-0.1,0.6c0,0.3-0.1,0.5-0.1,0.8c0,0.2-0.1,0.4-0.1,0.7
				c0,0.2-0.1,0.4-0.2,0.7c-0.1,0.3-0.1,0.5-0.2,0.8c-0.1,0.2-0.1,0.4-0.2,0.6c-0.1,0.3-0.2,0.6-0.3,0.9c-0.1,0.2-0.1,0.3-0.2,0.5
				c-0.2,0.5-0.4,1-0.6,1.4c0,0.1-0.1,0.1-0.1,0.1c-0.3,0.6-0.6,1.2-0.9,1.7c0,0-0.1,0.1-0.1,0.1c-0.3,0.4-0.6,0.9-0.9,1.3
				c-0.1,0.1-0.2,0.2-0.2,0.3c-0.3,0.4-0.6,0.7-1,1.1c0,0,0,0.1-0.1,0.1c-0.4,0.3-0.7,0.7-1.1,1c-0.1,0.1-0.2,0.1-0.3,0.2
				c-0.4,0.3-0.8,0.6-1.2,0.8l0,0c0,0,0,0,0,0l17-9.9c0.4-0.2,0.8-0.5,1.2-0.8c0.1-0.1,0.2-0.1,0.3-0.2c0.4-0.3,0.8-0.6,1.1-1
				c0,0,0-0.1,0.1-0.1c0.3-0.3,0.7-0.7,1-1.1c0.1-0.1,0.2-0.2,0.2-0.3c0.3-0.4,0.6-0.8,0.9-1.3c0,0,0,0,0,0c0,0,0-0.1,0.1-0.1
				c0.3-0.5,0.7-1.1,0.9-1.7c0,0,0-0.1,0.1-0.1c0,0,0,0,0,0c0.2-0.5,0.4-0.9,0.6-1.4c0,0,0-0.1,0.1-0.1c0-0.1,0.1-0.2,0.1-0.3
				c0.1-0.3,0.2-0.6,0.3-0.9c0-0.1,0.1-0.2,0.1-0.2c0-0.1,0.1-0.2,0.1-0.3c0.1-0.3,0.1-0.5,0.2-0.8c0-0.1,0.1-0.2,0.1-0.3
				c0-0.1,0-0.2,0.1-0.4c0-0.2,0.1-0.4,0.1-0.7c0-0.1,0-0.2,0.1-0.3c0-0.1,0-0.3,0.1-0.4c0-0.2,0.1-0.4,0.1-0.6c0-0.1,0-0.2,0-0.3
				c0-0.2,0-0.4,0.1-0.5c0-0.2,0-0.4,0.1-0.6c0-0.1,0-0.2,0-0.2c0-0.3,0-0.5,0-0.8c0-0.1,0-0.3,0-0.4c0,0,0-0.1,0-0.1
				c0-0.4,0-0.9,0-1.3c0,0,0-0.1,0-0.1C1342.3,260.2,1342.3,259.7,1342.3,259.3z"/>
		</g>
		<path id="XMLID_174_" class="st44" d="M1302.9,221.1c0,0.1,0,0.2,0,0.3c0.1,0.8,0.2,1.5,0.3,2.3c0,0.1,0,0.3,0.1,0.4
			c0.1,0.9,0.2,1.7,0.3,2.6l17-9.9c0,0,0,0,0,0c-0.1-0.8-0.2-1.6-0.3-2.4c-0.1-0.8-0.2-1.6-0.3-2.4c-0.1-0.8-0.3-1.7-0.4-2.5
			c-0.2-0.8-0.3-1.7-0.5-2.5c-0.1-0.2-0.1-0.5-0.2-0.7c-0.1-0.4-0.2-0.8-0.3-1.2c-0.1-0.2-0.1-0.5-0.2-0.7c-0.1-0.3-0.2-0.6-0.2-0.9
			c-0.1-0.4-0.2-0.8-0.3-1.2c0-0.2-0.1-0.4-0.1-0.5c-0.1-0.3-0.2-0.7-0.3-1c-0.1-0.4-0.2-0.8-0.3-1.2c0-0.1-0.1-0.3-0.1-0.4
			c-0.1-0.4-0.3-0.9-0.4-1.3c-0.1-0.3-0.2-0.7-0.3-1c0-0.1-0.1-0.2-0.1-0.2c-0.2-0.6-0.4-1.2-0.6-1.8c-0.1-0.2-0.1-0.4-0.2-0.6
			c0,0,0-0.1,0-0.1c-0.3-0.8-0.6-1.6-0.9-2.4c0-0.1,0-0.1-0.1-0.2c-0.1-0.2-0.2-0.5-0.3-0.7c-0.2-0.5-0.4-1-0.6-1.5
			c-0.1-0.1-0.1-0.3-0.2-0.4c-0.1-0.3-0.3-0.6-0.4-0.9c-0.1-0.3-0.3-0.7-0.4-1c-0.1-0.2-0.2-0.4-0.3-0.7c-0.2-0.3-0.3-0.7-0.5-1
			c-0.1-0.2-0.2-0.5-0.3-0.7c-0.1-0.3-0.3-0.6-0.4-0.9c-0.2-0.4-0.4-0.8-0.6-1.2c-0.1-0.2-0.2-0.4-0.3-0.5c-0.1-0.3-0.3-0.5-0.4-0.8
			c-0.3-0.5-0.6-1.1-0.8-1.6c-0.1-0.2-0.2-0.4-0.3-0.6c-0.1-0.1-0.2-0.3-0.2-0.4c-0.7-1.3-1.4-2.6-2.2-3.9c0,0,0-0.1-0.1-0.1
			c-0.1-0.2-0.2-0.4-0.3-0.6c-0.5-0.8-0.9-1.5-1.4-2.3c-0.2-0.3-0.4-0.7-0.6-1c-0.4-0.7-0.9-1.3-1.3-2c-0.1-0.2-0.3-0.4-0.4-0.6
			c-0.2-0.3-0.4-0.6-0.6-0.9c-0.5-0.7-1-1.4-1.5-2.1c-0.2-0.3-0.4-0.6-0.6-0.9c-0.7-0.9-1.3-1.8-2-2.6c-0.6-0.8-1.3-1.6-1.9-2.4
			c-0.6-0.7-1.2-1.5-1.9-2.2c-0.6-0.7-1.3-1.4-1.9-2.1c-0.4-0.5-0.9-0.9-1.3-1.4c-0.1-0.1-0.2-0.2-0.3-0.3c-0.1-0.1-0.3-0.3-0.4-0.4
			c-0.3-0.3-0.7-0.7-1-1c-0.2-0.2-0.4-0.4-0.6-0.6c-0.2-0.2-0.3-0.3-0.5-0.5c-0.3-0.2-0.5-0.5-0.8-0.7c-0.3-0.2-0.5-0.5-0.8-0.7
			c-0.2-0.2-0.4-0.4-0.6-0.6c-0.2-0.2-0.4-0.4-0.6-0.5c-0.3-0.3-0.6-0.5-0.9-0.8c-0.2-0.2-0.5-0.4-0.7-0.6c-0.2-0.1-0.3-0.3-0.5-0.4
			c-0.3-0.3-0.6-0.5-1-0.8c-0.3-0.2-0.5-0.4-0.8-0.6c-0.1-0.1-0.2-0.2-0.4-0.3c-0.3-0.3-0.7-0.5-1-0.8c-0.3-0.2-0.5-0.4-0.8-0.6
			c-0.1-0.1-0.2-0.1-0.3-0.2c-0.3-0.2-0.7-0.5-1-0.7c-0.3-0.2-0.6-0.4-0.8-0.6c-0.1-0.1-0.2-0.1-0.2-0.2c-0.3-0.2-0.7-0.4-1-0.7
			c-0.3-0.2-0.6-0.4-0.9-0.6c-0.1,0-0.2-0.1-0.2-0.1c-0.3-0.2-0.7-0.4-1-0.6c-0.3-0.2-0.6-0.4-0.9-0.5c-0.2-0.1-0.3-0.2-0.5-0.3
			c-0.5-0.3-1.1-0.6-1.6-0.9l0,0c-0.2-0.1-0.4-0.2-0.6-0.3c-0.3-0.1-0.5-0.3-0.8-0.4c-0.2-0.1-0.4-0.2-0.6-0.3
			c-0.3-0.2-0.7-0.3-1-0.5c-0.2-0.1-0.5-0.2-0.7-0.3c-0.1,0-0.2-0.1-0.3-0.1c-0.7-0.3-1.3-0.6-2-0.8c0,0,0,0,0,0l0,0
			c-0.7-0.3-1.3-0.5-2-0.7c-0.1,0-0.2-0.1-0.3-0.1c-0.2-0.1-0.5-0.2-0.7-0.2c-0.3-0.1-0.7-0.2-1-0.3c-0.2-0.1-0.3-0.1-0.5-0.1
			c-0.3-0.1-0.6-0.2-0.9-0.2c-0.2-0.1-0.4-0.1-0.7-0.2c-0.2-0.1-0.5-0.1-0.7-0.2c-0.3-0.1-0.6-0.1-0.9-0.2c-0.2,0-0.3-0.1-0.5-0.1
			c-0.3-0.1-0.5-0.1-0.8-0.1c-0.3-0.1-0.6-0.1-0.9-0.2c-0.1,0-0.2,0-0.3-0.1c-0.3,0-0.6-0.1-0.8-0.1c-0.4,0-0.7-0.1-1.1-0.1
			c-0.1,0-0.2,0-0.3,0c-0.2,0-0.5,0-0.7,0c-0.4,0-0.9,0-1.3,0c-0.1,0-0.2,0-0.3,0c-0.2,0-0.4,0-0.5,0c-0.5,0-1,0-1.5,0.1
			c-0.2,0-0.3,0-0.5,0c-0.2,0-0.5,0.1-0.7,0.1c-0.2,0-0.3,0-0.5,0.1c-0.6,0.1-1.1,0.2-1.7,0.3l0,0c-2.7,0.5-5.2,1.5-7.5,2.8l-17,9.9
			c2.7-1.6,5.8-2.6,9.2-3.1c0.1,0,0.3,0,0.5-0.1c0.4,0,0.8-0.1,1.2-0.1c0.5,0,1-0.1,1.5-0.1c0.3,0,0.6,0,0.9,0c0.4,0,0.9,0,1.3,0
			c0.3,0,0.7,0,1,0.1c0.3,0,0.7,0.1,1.1,0.1c0.4,0,0.8,0.1,1.2,0.1c0.3,0,0.6,0.1,0.9,0.2c0.4,0.1,0.9,0.1,1.3,0.2
			c0.3,0.1,0.6,0.1,0.9,0.2c0.4,0.1,0.9,0.2,1.4,0.3c0.3,0.1,0.6,0.2,0.9,0.2c0.5,0.1,1,0.3,1.5,0.5c0.2,0.1,0.5,0.2,0.7,0.2
			c0.7,0.3,1.5,0.5,2.2,0.8c0,0,0,0,0,0c0.7,0.3,1.5,0.6,2.2,1c0.2,0.1,0.5,0.2,0.7,0.3c0.5,0.3,1.1,0.5,1.6,0.8
			c0.3,0.1,0.5,0.3,0.8,0.4c0.7,0.4,1.4,0.8,2.2,1.2c0.5,0.3,0.9,0.6,1.4,0.8c0.3,0.2,0.6,0.4,1,0.6c0.4,0.2,0.8,0.5,1.1,0.7
			c0.3,0.2,0.6,0.4,1,0.6c0.4,0.3,0.7,0.5,1.1,0.8c0.3,0.2,0.7,0.5,1,0.7c0.4,0.3,0.7,0.6,1.1,0.8c0.3,0.3,0.7,0.5,1,0.8
			c0.4,0.3,0.8,0.6,1.1,0.9c0.3,0.3,0.6,0.5,0.9,0.8c0.4,0.3,0.8,0.7,1.2,1c0.3,0.3,0.6,0.5,0.9,0.8c0.4,0.4,0.8,0.7,1.2,1.1
			c0.3,0.2,0.5,0.5,0.8,0.7c0.4,0.4,0.9,0.8,1.3,1.2c0.2,0.2,0.4,0.4,0.7,0.7c0.5,0.5,0.9,0.9,1.4,1.4c0.2,0.2,0.3,0.3,0.5,0.5
			c0.5,0.5,1,1.1,1.5,1.6c0.1,0.1,0.2,0.2,0.3,0.3c0.5,0.6,1.1,1.2,1.6,1.8c0,0,0.1,0.1,0.1,0.1c2,2.4,4,4.8,5.9,7.4
			c0.5,0.7,1,1.4,1.5,2.2c0.3,0.5,0.7,1,1,1.4c0.4,0.6,0.9,1.3,1.3,2c0.2,0.3,0.4,0.7,0.6,1c0.5,0.8,0.9,1.5,1.4,2.3
			c0.1,0.2,0.3,0.5,0.4,0.7c0.8,1.3,1.5,2.6,2.2,3.9c0.2,0.3,0.4,0.7,0.5,1c0.3,0.5,0.6,1.1,0.8,1.6c0.2,0.4,0.4,0.9,0.7,1.3
			c0.2,0.4,0.4,0.8,0.6,1.2c0.2,0.5,0.5,1,0.7,1.6c0.2,0.3,0.3,0.7,0.5,1c0.3,0.6,0.5,1.1,0.7,1.7c0.1,0.3,0.3,0.6,0.4,0.9
			c0.3,0.6,0.5,1.3,0.8,1.9c0.1,0.2,0.2,0.5,0.3,0.7c0.3,0.9,0.7,1.8,1,2.6c0.1,0.2,0.1,0.4,0.2,0.6c0.2,0.7,0.5,1.4,0.7,2.1
			c0.1,0.3,0.2,0.7,0.3,1c0.2,0.6,0.4,1.1,0.5,1.7c0.1,0.4,0.2,0.8,0.3,1.2c0.2,0.5,0.3,1.1,0.4,1.6c0.1,0.4,0.2,0.8,0.3,1.2
			c0.1,0.5,0.3,1,0.4,1.6c0.1,0.4,0.2,0.8,0.3,1.2c0.2,0.9,0.4,1.8,0.6,2.7c0,0,0,0,0,0C1302.6,219.4,1302.8,220.2,1302.9,221.1z"/>
		<g id="XMLID_183_">
			<path id="XMLID_186_" class="st47" d="M1254.9,148.6c25.2,14.5,45.9,48.2,48.7,77.9c12.5,10.4,21.8,28.6,21.7,43.9
				c-0.1,17.7-12.6,24.8-28,15.9c-6.9-4-13.2-10.5-18-18.1c-7.3,0.7-15.7-1.4-24.7-6.6c-9.1-5.3-17.6-13-25-22.3
				c-5.7,1.6-12.9,0.4-20.6-4c-19-11-34.3-37.6-34.3-59.4c0.1-21.8,15.5-30.6,34.5-19.7c0.1,0.1,0.3,0.2,0.4,0.2
				C1217.3,141,1234.7,137,1254.9,148.6z"/>
		</g>
	</g>
	<g id="XMLID_140_">
		<polygon id="XMLID_156_" class="st48" points="1408.8,697.8 1431.1,684.9 1455.9,660.9 1433.6,673.9 		"/>
		<path id="XMLID_282_" class="st48" d="M1644.9,620.5c0-0.3,0-0.7,0-1c0-0.2,0-0.3,0-0.5c0-0.1,0-0.1,0-0.2c0-0.1,0-0.2,0-0.4
			c0-0.3-0.1-0.7-0.1-1.1c0-0.4-0.1-0.7-0.2-1.1c0,0,0,0,0,0c0,0,0,0,0,0c-0.1-0.3-0.1-0.7-0.2-1c-0.1-0.4-0.1-0.7-0.2-1.1
			c0-0.1-0.1-0.3-0.1-0.4c0-0.1,0-0.2-0.1-0.2c0-0.2-0.1-0.3-0.1-0.5c-0.1-0.4-0.2-0.8-0.3-1.1c-0.1-0.3-0.2-0.6-0.2-0.8
			c0-0.1,0-0.1,0-0.2c0,0,0-0.1,0-0.1c-0.1-0.4-0.2-0.7-0.4-1.1c-0.1-0.4-0.2-0.7-0.4-1.1c0-0.1-0.1-0.1-0.1-0.2
			c0-0.1,0-0.1-0.1-0.2c-0.1-0.2-0.2-0.5-0.3-0.7c-0.1-0.3-0.3-0.7-0.4-1c-0.1-0.3-0.2-0.5-0.3-0.8c0,0,0-0.1-0.1-0.1
			c0,0,0-0.1-0.1-0.1c-0.2-0.3-0.3-0.7-0.5-1c-0.2-0.4-0.4-0.8-0.5-1.1c0-0.1-0.1-0.1-0.1-0.2c0-0.1-0.1-0.1-0.1-0.2
			c-0.2-0.3-0.3-0.6-0.5-0.9c-0.2-0.4-0.4-0.7-0.6-1.1c-0.1-0.2-0.2-0.4-0.3-0.6c0-0.1-0.1-0.1-0.1-0.2c-0.2-0.3-0.4-0.6-0.6-0.9
			c-0.3-0.5-0.6-0.9-0.9-1.4c0-0.1-0.1-0.1-0.1-0.2c-0.4-0.7-0.9-1.3-1.4-1.9c0,0,0,0,0,0l0,0c-0.3-0.4-0.6-0.8-1-1.3
			c-0.3-0.3-0.5-0.7-0.8-1c0,0,0,0,0,0c0,0,0,0,0,0c-0.3-0.3-0.6-0.7-0.8-1c-0.3-0.3-0.6-0.6-0.8-0.9c0,0-0.1-0.1-0.1-0.1
			c0-0.1-0.1-0.1-0.1-0.2c-0.2-0.2-0.4-0.4-0.6-0.6c-0.3-0.3-0.6-0.6-0.9-0.9c-0.1-0.1-0.2-0.2-0.3-0.3c-0.1-0.1-0.1-0.1-0.2-0.2
			c-0.2-0.1-0.3-0.3-0.5-0.4c-0.3-0.3-0.6-0.6-1-0.8c-0.1-0.1-0.3-0.2-0.4-0.3c-0.1-0.1-0.1-0.1-0.2-0.2c-0.1-0.1-0.2-0.2-0.3-0.3
			c-0.3-0.2-0.6-0.5-0.9-0.7c-0.2-0.2-0.5-0.3-0.7-0.5c0,0-0.1-0.1-0.1-0.1c0,0-0.1-0.1-0.1-0.1c-0.3-0.2-0.6-0.4-0.9-0.6
			c-0.3-0.2-0.6-0.4-0.9-0.6c-0.1,0-0.1-0.1-0.2-0.1l-228.4-131.9c-0.2-0.1-0.5-0.3-0.7-0.4c-0.3-0.2-0.6-0.3-0.9-0.5
			c-0.2-0.1-0.4-0.2-0.6-0.3c0,0-0.1,0-0.1-0.1c-0.1,0-0.1-0.1-0.2-0.1c-0.3-0.1-0.6-0.3-0.9-0.4c-0.3-0.1-0.6-0.2-0.9-0.3
			c0,0-0.1,0-0.1,0c0,0-0.1,0-0.1,0c-0.2-0.1-0.4-0.1-0.6-0.2c-0.3-0.1-0.6-0.2-0.9-0.2c-0.1,0-0.3-0.1-0.4-0.1c-0.1,0-0.1,0-0.2,0
			c-0.1,0-0.2,0-0.3-0.1c-0.3-0.1-0.6-0.1-0.9-0.2c-0.2,0-0.4,0-0.6-0.1c-0.1,0-0.1,0-0.2,0c-0.1,0-0.1,0-0.2,0c-0.3,0-0.7,0-1,0
			c-0.1,0-0.3,0-0.4,0c-0.1,0-0.2,0-0.3,0c-0.1,0-0.2,0-0.3,0c-0.4,0-0.8,0.1-1.2,0.2c0,0,0,0,0,0c-0.1,0-0.2,0.1-0.3,0.1
			c-0.4,0.1-0.8,0.2-1.2,0.3c0,0-0.1,0-0.1,0c-0.6,0.2-1.1,0.5-1.6,0.8l-22.3,13c0.5-0.3,1.1-0.6,1.6-0.8c0.4-0.2,0.9-0.3,1.3-0.4
			c0.1,0,0.2-0.1,0.3-0.1c0.5-0.1,1.1-0.2,1.6-0.2c0.1,0,0.2,0,0.3,0c0.5,0,1.1,0,1.6,0c0.1,0,0.1,0,0.2,0c0.6,0.1,1.2,0.1,1.8,0.3
			c0.1,0,0.1,0,0.2,0c0.6,0.1,1.3,0.3,1.9,0.5c0,0,0.1,0,0.1,0c0.7,0.2,1.4,0.5,2,0.8c0,0,0.1,0,0.1,0.1c0.7,0.3,1.4,0.7,2.1,1.1
			l228.4,131.9c0.7,0.4,1.4,0.9,2.2,1.4c0,0,0.1,0.1,0.1,0.1c0.7,0.5,1.3,1,2,1.5c0.1,0.1,0.1,0.1,0.2,0.2c0.6,0.5,1.2,1,1.8,1.6
			c0.1,0.1,0.1,0.1,0.2,0.2c0.6,0.6,1.2,1.2,1.8,1.8c0,0.1,0.1,0.1,0.1,0.2c0.6,0.7,1.2,1.4,1.8,2.1c0,0,0,0,0,0
			c1.2,1.4,2.2,2.9,3.3,4.4c0.3,0.4,0.6,0.9,0.9,1.4c0.2,0.4,0.5,0.8,0.7,1.2c0.1,0.2,0.2,0.4,0.3,0.6c0.4,0.7,0.7,1.3,1.1,2
			c0,0.1,0.1,0.1,0.1,0.2c0.4,0.8,0.8,1.7,1.2,2.5c0,0,0,0.1,0.1,0.1c0.4,0.8,0.7,1.7,1,2.5c0,0.1,0,0.1,0.1,0.2
			c0.3,0.9,0.6,1.7,0.9,2.6c0,0.1,0,0.1,0,0.2c0.2,0.8,0.5,1.6,0.7,2.5c0,0.1,0,0.2,0.1,0.2c0.2,0.8,0.4,1.7,0.5,2.5c0,0,0,0,0,0
			c0.1,0.9,0.2,1.7,0.3,2.5c0,0.1,0,0.1,0,0.2c0.1,0.8,0.1,1.7,0.1,2.5l-0.4,123.6c0,0.8,0,1.6-0.1,2.4c0,0.1,0,0.1,0,0.2
			c-0.1,0.7-0.2,1.4-0.3,2c0,0.1,0,0.2-0.1,0.3c-0.1,0.6-0.3,1.2-0.5,1.8c0,0.1-0.1,0.2-0.1,0.3c-0.2,0.5-0.4,1-0.6,1.5
			c0,0.1,0,0.1-0.1,0.2c-0.3,0.6-0.5,1.1-0.9,1.6c0,0.1-0.1,0.1-0.1,0.2c-0.3,0.4-0.5,0.8-0.8,1.1c-0.1,0.1-0.2,0.2-0.3,0.4
			c-0.3,0.3-0.5,0.5-0.8,0.8c-0.1,0.1-0.2,0.2-0.3,0.3c-0.4,0.3-0.8,0.6-1.2,0.9l22.3-13c0.4-0.3,0.8-0.5,1.2-0.9
			c0.1-0.1,0.2-0.2,0.3-0.3c0.3-0.2,0.5-0.5,0.8-0.8c0.1-0.1,0.2-0.2,0.3-0.4c0.3-0.3,0.6-0.7,0.8-1.1c0-0.1,0.1-0.1,0.1-0.2
			c0,0,0,0,0,0c0.3-0.5,0.6-1,0.8-1.5c0,0,0,0,0-0.1c0-0.1,0-0.1,0.1-0.2c0.1-0.3,0.3-0.7,0.4-1c0.1-0.2,0.1-0.4,0.2-0.5
			c0-0.1,0.1-0.2,0.1-0.3c0-0.1,0.1-0.2,0.1-0.3c0.1-0.4,0.2-0.7,0.3-1.1c0-0.1,0.1-0.3,0.1-0.4c0-0.1,0-0.2,0.1-0.3
			c0-0.1,0.1-0.3,0.1-0.4c0.1-0.3,0.1-0.7,0.2-1c0-0.2,0-0.4,0.1-0.6c0-0.1,0-0.1,0-0.2c0-0.1,0-0.2,0-0.2c0-0.3,0-0.7,0.1-1
			c0-0.3,0-0.7,0-1c0,0,0,0,0-0.1l0.4-123.6C1644.9,621.1,1644.9,620.8,1644.9,620.5z"/>
	</g>
	<g id="XMLID_157_">
		<linearGradient id="XMLID_108_" gradientUnits="userSpaceOnUse" x1="1350.8834" y1="617.8839" x2="1622.6356" y2="617.8839">
			<stop  offset="0" style="stop-color:#D0D5FA"/>
			<stop  offset="1" style="stop-color:#5BD0ED"/>
		</linearGradient>
		<path id="XMLID_158_" class="st49" d="M1601.2,597.3c11.9,6.9,21.5,23.5,21.4,37.1l-0.4,123.6c0,13.6-9.7,19.2-21.6,12.3
			l-167.1-96.5l-24.8,23.9l-24.6-52.5l-11.8-6.8c-11.9-6.9-21.5-23.5-21.4-37.1l0.4-123.6c0-13.6,9.7-19.2,21.6-12.3L1601.2,597.3z"
			/>
	</g>
	<g id="XMLID_217_">
		<path id="XMLID_220_" class="st47" d="M1588.5,647.7c4.3,2.5,7.8,8.6,7.8,13.6c0,5-3.5,7-7.9,4.5L1385,548.3
			c-4.3-2.5-7.8-8.6-7.8-13.5c0-5,3.5-7,7.9-4.5L1588.5,647.7z"/>
	</g>
	<g id="XMLID_187_">
		<path id="XMLID_190_" class="st47" d="M1473,619.6c4.3,2.5,7.8,8.6,7.8,13.6c0,5-3.5,7-7.9,4.5l-81.2-46.9
			c-4.3-2.5-7.8-8.6-7.8-13.6c0-5,3.5-7,7.9-4.5L1473,619.6z"/>
	</g>
	<g id="XMLID_1130_">
		<ellipse id="XMLID_1129_" class="st25" cx="711.9" cy="1468.4" rx="50.2" ry="25.4"/>
		<g id="XMLID_1133_">
			<path id="XMLID_1589_" class="st50" d="M698.2,1467.8c-4.1-4.7-16.4-14.9-23.2-8.9c-6,5.2-6.6,7-3.6,9.8
				C679,1475.6,713.8,1485.5,698.2,1467.8z"/>
			<path id="XMLID_1586_" class="st51" d="M744.4,1457.1c-6.2-0.1-22,2.1-22.2,11.1c-0.1,7.9,0.7,9.6,4.8,9.2
				C737.1,1476.5,767.9,1457.4,744.4,1457.1z"/>
			<circle id="XMLID_1183_" class="st52" cx="707" cy="1281" r="18.8"/>
			<path id="XMLID_1182_" class="st53" d="M704.3,1278.1c0,0,26.2-12,25.8-18.4c0,0-3.7,2.5-7,0s-23.1-15.5-34.9,0.6
				c-11.8,16.1-2.3,33,0,34c2.3,1,12.2-4.5,12.2-4.5L704.3,1278.1z"/>
			<path id="XMLID_1179_" class="st52" d="M705.7,1308.2H704c-1.4,0-2.6-1.2-2.6-2.6v-7c0-1.4,1.2-2.6,2.6-2.6h1.7
				c1.4,0,2.6,1.2,2.6,2.6v7C708.3,1307.1,707.2,1308.2,705.7,1308.2z"/>
			<path id="XMLID_973_" class="st54" d="M682.3,1465l-2.8-1.2c-2.4-1-3.5-3.8-2.4-6.2l30.2-69.1c1-2.4,3.8-3.5,6.2-2.4l2.8,1.2
				c2.4,1,3.5,3.8,2.4,6.2l-30.2,69.1C687.5,1464.9,684.7,1466,682.3,1465z"/>
			<path id="XMLID_1079_" class="st55" d="M729.2,1464.6l-2.8,1.1c-2.4,0.9-5.2-0.3-6.1-2.7l-26.9-70.4c-0.9-2.4,0.3-5.2,2.7-6.1
				l2.8-1.1c2.4-0.9,5.2,0.3,6.1,2.7l26.9,70.4C732.8,1460.9,731.6,1463.7,729.2,1464.6z"/>
			<path id="XMLID_1178_" class="st56" d="M726.1,1321.2c-1.8-9.7-9.6-17-19-17H704c-10.6,0-19.3,9.5-19.3,21.1v47
				c0,11.6,8.7,21.1,19.3,21.1h3.2c10.6,0,19.3-9.5,19.3-21.1v-27.3C726.4,1338.8,727.2,1331.1,726.1,1321.2z"/>
			<path id="XMLID_1177_" class="st47" d="M709.3,1306.7h-10.1c-0.7,0-1.3-0.6-1.3-1.3v-0.9c0-0.7,0.6-1.3,1.3-1.3h10.1
				c0.7,0,1.3,0.6,1.3,1.3v0.9C710.7,1306.1,710.1,1306.7,709.3,1306.7z"/>
			<g id="XMLID_1101_">
				<g id="XMLID_1100_">
					<polygon id="XMLID_1083_" class="st57" points="702.8,1397.8 733.1,1383.9 733.1,1411.6 702.8,1425.4 					"/>
					<polygon id="XMLID_1127_" class="st58" points="707,1407.8 730.4,1397.3 730.4,1399.3 707,1409.8 					"/>
					<polygon id="XMLID_1084_" class="st59" points="698.9,1396 702.8,1397.8 702.8,1425.4 698.9,1423.7 					"/>
					<polygon id="XMLID_1097_" class="st60" points="733.1,1383.9 702.8,1397.8 698.9,1396 729.4,1382.3 					"/>
				</g>
				<g id="XMLID_1126_">
					<path id="XMLID_1128_" class="st59" d="M714.7,1386.5c2.9-1.5,6.3-1,8,1c-0.1-0.4-0.2-0.7-0.4-1c-1.4-2.8-5.3-3.7-8.6-1.9
						s-4.9,5.4-3.4,8.2c0.2,0.3,0.4,0.6,0.6,0.9C710.2,1391.1,711.7,1388.1,714.7,1386.5z"/>
				</g>
			</g>
			<circle id="XMLID_1080_" class="st52" cx="714.2" cy="1383.1" r="5.3"/>
			<path id="XMLID_1076_" class="st58" d="M715.4,1383.1H713c-2,0-3.6-1.6-3.6-3.6v-58.1c0-2,1.6-3.6,3.6-3.6h2.3
				c2,0,3.6,1.6,3.6,3.6v58.1C719,1381.5,717.3,1383.1,715.4,1383.1z"/>
		</g>
	</g>
	<g id="XMLID_1142_">
		<ellipse id="XMLID_1202_" class="st25" cx="1480.8" cy="1192" rx="50.2" ry="25.4"/>
		<g id="XMLID_1143_">
			<path id="XMLID_1201_" class="st47" d="M1494.5,1191.5c4.1-4.7,16.4-14.9,23.2-8.9c6,5.2,6.6,7,3.6,9.8
				C1513.7,1199.2,1478.9,1209.1,1494.5,1191.5z"/>
			<path id="XMLID_1200_" class="st61" d="M1448.3,1180.7c6.2-0.1,22,2.1,22.2,11.1c0.1,7.9-0.7,9.6-4.8,9.2
				C1455.6,1200.1,1424.8,1181,1448.3,1180.7z"/>
			<circle id="XMLID_1197_" class="st52" cx="1485.7" cy="1004.6" r="18.8"/>
			<path id="XMLID_1194_" class="st53" d="M1488.4,1001.7c0,0-7.3-0.6-8.9-8.5c-4.5,1.2-11.8-3-11.3-5c1.5-6.7,24.6-20.4,36.3-4.3
				c11.8,16.1,2.3,33,0,34c-2.3,1-12.2-4.5-12.2-4.5L1488.4,1001.7z"/>
			<path id="XMLID_1191_" class="st52" d="M1487,1031.8h1.7c1.4,0,2.6-1.2,2.6-2.6v-7c0-1.4-1.2-2.6-2.6-2.6h-1.7
				c-1.4,0-2.6,1.2-2.6,2.6v7C1484.3,1030.7,1485.5,1031.8,1487,1031.8z"/>
			<path id="XMLID_1188_" class="st62" d="M1510.4,1188.6l2.8-1.2c2.4-1,3.5-3.8,2.4-6.2l-30.2-69.1c-1-2.4-3.8-3.5-6.2-2.4
				l-2.8,1.2c-2.4,1-3.5,3.8-2.4,6.2l30.2,69.1C1505.2,1188.5,1508,1189.6,1510.4,1188.6z"/>
			<path id="XMLID_1185_" class="st63" d="M1463.5,1188.2l2.8,1.1c2.4,0.9,5.2-0.3,6.1-2.7l26.9-70.4c0.9-2.4-0.3-5.2-2.7-6.1
				l-2.8-1.1c-2.4-0.9-5.2,0.3-6.1,2.7l-26.9,70.4C1459.9,1184.5,1461.1,1187.3,1463.5,1188.2z"/>
			<path id="XMLID_1184_" class="st64" d="M1466.6,1044.8c1.8-9.7,9.6-17,19-17h3.2c10.6,0,19.3,9.5,19.3,21.1v47
				c0,11.6-8.7,21.1-19.3,21.1h-3.2c-10.6,0-19.3-9.5-19.3-21.1v-27.3C1466.2,1062.4,1465.5,1054.7,1466.6,1044.8z"/>
			<path id="XMLID_1181_" class="st47" d="M1483.4,1030.3h10.1c0.7,0,1.3-0.6,1.3-1.3v-0.9c0-0.7-0.6-1.3-1.3-1.3h-10.1
				c-0.7,0-1.3,0.6-1.3,1.3v0.9C1482,1029.7,1482.6,1030.3,1483.4,1030.3z"/>
			<g id="XMLID_1168_">
				<g id="XMLID_1171_">
					<polygon id="XMLID_1180_" class="st65" points="1489.9,1121.4 1459.6,1107.5 1459.6,1135.2 1489.9,1149 					"/>
					<polygon id="XMLID_1174_" class="st66" points="1485.7,1131.4 1462.3,1120.9 1462.3,1122.9 1485.7,1133.4 					"/>
					<polygon id="XMLID_1173_" class="st67" points="1493.8,1119.6 1489.9,1121.4 1489.9,1149 1493.8,1147.3 					"/>
					<polygon id="XMLID_1172_" class="st68" points="1459.6,1107.5 1489.9,1121.4 1493.8,1119.6 1463.3,1105.9 					"/>
				</g>
				<g id="XMLID_1169_">
					<path id="XMLID_1170_" class="st59" d="M1478,1110.1c-2.9-1.5-6.3-1-8,1c0.1-0.4,0.2-0.7,0.4-1c1.4-2.8,5.3-3.7,8.6-1.9
						s4.9,5.4,3.4,8.2c-0.2,0.3-0.4,0.6-0.6,0.9C1482.5,1114.7,1481,1111.7,1478,1110.1z"/>
				</g>
			</g>
			<circle id="XMLID_1150_" class="st52" cx="1478.5" cy="1106.7" r="5.3"/>
			<path id="XMLID_1144_" class="st69" d="M1477.3,1106.7h2.3c2,0,3.6-1.6,3.6-3.6V1045c0-2-1.6-3.6-3.6-3.6h-2.3
				c-2,0-3.6,1.6-3.6,3.6v58.1C1473.7,1105.1,1475.3,1106.7,1477.3,1106.7z"/>
		</g>
	</g>
	<g id="XMLID_55_">
		<linearGradient id="XMLID_109_" gradientUnits="userSpaceOnUse" x1="563.3953" y1="1099.693" x2="884.2467" y2="1368.1605">
			<stop  offset="0" style="stop-color:#DBD9FF"/>
			<stop  offset="1" style="stop-color:#D1E5F6"/>
		</linearGradient>
		<path id="XMLID_236_" class="st70" d="M492.4,1001.2L450,976.7c-1-0.6-2.2-0.6-3.2,0l-41.6,24.2c-2.1,1.2-2.1,4.3,0,5.5l42.4,24.5
			c1,0.6,2.2,0.6,3.2,0l41.6-24.2C494.5,1005.4,494.5,1002.4,492.4,1001.2z"/>
		<linearGradient id="XMLID_189_" gradientUnits="userSpaceOnUse" x1="615.6924" y1="1037.1917" x2="936.5438" y2="1305.6591">
			<stop  offset="0" style="stop-color:#DBD9FF"/>
			<stop  offset="1" style="stop-color:#D1E5F6"/>
		</linearGradient>
		<path id="XMLID_239_" class="st71" d="M480.1,962.8l42.4,24.5c1,0.6,2.2,0.6,3.2,0l41.6-24.2c2.1-1.2,2.1-4.3,0-5.5l-42.4-24.5
			c-1-0.6-2.2-0.6-3.2,0l-41.6,24.2C478,958.6,478,961.6,480.1,962.8z"/>
		<linearGradient id="XMLID_191_" gradientUnits="userSpaceOnUse" x1="666.0743" y1="976.9791" x2="986.9257" y2="1245.4465">
			<stop  offset="0" style="stop-color:#DBD9FF"/>
			<stop  offset="1" style="stop-color:#D1E5F6"/>
		</linearGradient>
		<path id="XMLID_247_" class="st72" d="M552.5,921l42.4,24.5c1,0.6,2.2,0.6,3.2,0l41.6-24.2c2.1-1.2,2.1-4.3,0-5.5l-42.4-24.5
			c-1-0.6-2.2-0.6-3.2,0l-41.6,24.2C550.4,916.8,550.4,919.8,552.5,921z"/>
		<linearGradient id="XMLID_195_" gradientUnits="userSpaceOnUse" x1="715.3703" y1="918.0643" x2="1036.2217" y2="1186.5319">
			<stop  offset="0" style="stop-color:#DBD9FF"/>
			<stop  offset="1" style="stop-color:#D1E5F6"/>
		</linearGradient>
		<path id="XMLID_250_" class="st73" d="M623,879.9l42.4,24.5c1,0.6,2.2,0.6,3.2,0l41.6-24.2c2.1-1.2,2.1-4.3,0-5.5l-42.4-24.5
			c-1-0.6-2.2-0.6-3.2,0L623,874.4C620.9,875.6,620.9,878.6,623,879.9z"/>
		<linearGradient id="XMLID_207_" gradientUnits="userSpaceOnUse" x1="767.6674" y1="855.5629" x2="1088.5188" y2="1124.0304">
			<stop  offset="0" style="stop-color:#DBD9FF"/>
			<stop  offset="1" style="stop-color:#D1E5F6"/>
		</linearGradient>
		<path id="XMLID_254_" class="st74" d="M697.9,836.3l42.4,24.5c1,0.6,2.2,0.6,3.2,0l41.6-24.2c2.1-1.2,2.1-4.3,0-5.5l-42.4-24.5
			c-1-0.6-2.2-0.6-3.2,0l-41.6,24.2C695.8,832,695.8,835,697.9,836.3z"/>
		<linearGradient id="XMLID_209_" gradientUnits="userSpaceOnUse" x1="818.0494" y1="795.3503" x2="1138.9008" y2="1063.8179">
			<stop  offset="0" style="stop-color:#DBD9FF"/>
			<stop  offset="1" style="stop-color:#D1E5F6"/>
		</linearGradient>
		<path id="XMLID_255_" class="st75" d="M770.3,794.5l42.4,24.5c1,0.6,2.2,0.6,3.2,0l41.6-24.2c2.1-1.2,2.1-4.3,0-5.5l-42.4-24.5
			c-1-0.6-2.2-0.6-3.2,0L770.3,789C768.2,790.2,768.2,793.2,770.3,794.5z"/>
		<linearGradient id="XMLID_232_" gradientUnits="userSpaceOnUse" x1="867.2584" y1="736.5396" x2="1188.1097" y2="1005.007">
			<stop  offset="0" style="stop-color:#DBD9FF"/>
			<stop  offset="1" style="stop-color:#D1E5F6"/>
		</linearGradient>
		<path id="XMLID_257_" class="st76" d="M838.7,751.7l42.4,24.5c1,0.6,2.2,0.6,3.2,0l41.6-24.2c2.1-1.2,2.1-4.3,0-5.5L883.5,722
			c-1-0.6-2.2-0.6-3.2,0l-41.6,24.2C836.6,747.5,836.6,750.5,838.7,751.7z"/>
		<linearGradient id="XMLID_233_" gradientUnits="userSpaceOnUse" x1="919.5555" y1="674.0381" x2="1240.4069" y2="942.5056">
			<stop  offset="0" style="stop-color:#DBD9FF"/>
			<stop  offset="1" style="stop-color:#D1E5F6"/>
		</linearGradient>
		<path id="XMLID_265_" class="st77" d="M913.6,708.1l42.4,24.5c1,0.6,2.2,0.6,3.2,0l41.6-24.2c2.1-1.2,2.1-4.3,0-5.5l-42.4-24.5
			c-1-0.6-2.2-0.6-3.2,0l-41.6,24.2C911.5,703.9,911.5,706.9,913.6,708.1z"/>
		<linearGradient id="XMLID_242_" gradientUnits="userSpaceOnUse" x1="969.9374" y1="613.8256" x2="1290.7888" y2="882.293">
			<stop  offset="0" style="stop-color:#DBD9FF"/>
			<stop  offset="1" style="stop-color:#D1E5F6"/>
		</linearGradient>
		<path id="XMLID_272_" class="st78" d="M986,666.3l42.4,24.5c1,0.6,2.2,0.6,3.2,0l41.6-24.2c2.1-1.2,2.1-4.3,0-5.5l-42.4-24.5
			c-1-0.6-2.2-0.6-3.2,0l-41.6,24.2C983.8,662.1,983.8,665.1,986,666.3z"/>
		<linearGradient id="XMLID_243_" gradientUnits="userSpaceOnUse" x1="575.8645" y1="1084.7908" x2="896.7159" y2="1353.2583">
			<stop  offset="0" style="stop-color:#DBD9FF"/>
			<stop  offset="1" style="stop-color:#D1E5F6"/>
		</linearGradient>
		<path id="XMLID_273_" class="st79" d="M574.6,1044.7l-42.4-24.5c-1-0.6-2.2-0.6-3.2,0l-41.6,24.2c-2.1,1.2-2.1,4.3,0,5.5
			l42.4,24.5c1,0.6,2.2,0.6,3.2,0l41.6-24.2C576.7,1048.9,576.7,1045.9,574.6,1044.7z"/>
		<linearGradient id="XMLID_244_" gradientUnits="userSpaceOnUse" x1="628.1616" y1="1022.2894" x2="949.013" y2="1290.7568">
			<stop  offset="0" style="stop-color:#DBD9FF"/>
			<stop  offset="1" style="stop-color:#D1E5F6"/>
		</linearGradient>
		<path id="XMLID_274_" class="st80" d="M604,976.6l-41.6,24.2c-2.1,1.2-2.1,4.3,0,5.5l42.4,24.5c1,0.6,2.2,0.6,3.2,0l41.6-24.2
			c2.1-1.2,2.1-4.3,0-5.5l-42.4-24.5C606.2,976.1,605,976.1,604,976.6z"/>
		<linearGradient id="XMLID_245_" gradientUnits="userSpaceOnUse" x1="678.5436" y1="962.0768" x2="999.395" y2="1230.5443">
			<stop  offset="0" style="stop-color:#DBD9FF"/>
			<stop  offset="1" style="stop-color:#D1E5F6"/>
		</linearGradient>
		<path id="XMLID_275_" class="st81" d="M676.4,934.8L634.7,959c-2.1,1.2-2.1,4.3,0,5.5l42.4,24.5c1,0.6,2.2,0.6,3.2,0l41.6-24.2
			c2.1-1.2,2.1-4.3,0-5.5l-42.4-24.5C678.6,934.2,677.3,934.2,676.4,934.8z"/>
		<linearGradient id="XMLID_246_" gradientUnits="userSpaceOnUse" x1="727.8395" y1="903.1621" x2="1048.6909" y2="1171.6296">
			<stop  offset="0" style="stop-color:#DBD9FF"/>
			<stop  offset="1" style="stop-color:#D1E5F6"/>
		</linearGradient>
		<path id="XMLID_276_" class="st82" d="M746.9,893.7l-41.6,24.2c-2.1,1.2-2.1,4.3,0,5.5l42.4,24.5c1,0.6,2.2,0.6,3.2,0l41.6-24.2
			c2.1-1.2,2.1-4.3,0-5.5l-42.4-24.5C749.1,893.1,747.9,893.1,746.9,893.7z"/>
		<linearGradient id="XMLID_248_" gradientUnits="userSpaceOnUse" x1="780.1367" y1="840.6606" x2="1100.988" y2="1109.1282">
			<stop  offset="0" style="stop-color:#DBD9FF"/>
			<stop  offset="1" style="stop-color:#D1E5F6"/>
		</linearGradient>
		<path id="XMLID_277_" class="st83" d="M821.8,850.1l-41.6,24.2c-2.1,1.2-2.1,4.3,0,5.5l42.4,24.5c1,0.6,2.2,0.6,3.2,0l41.6-24.2
			c2.1-1.2,2.1-4.3,0-5.5l-42.4-24.5C824,849.5,822.8,849.5,821.8,850.1z"/>
		<linearGradient id="XMLID_249_" gradientUnits="userSpaceOnUse" x1="830.5186" y1="780.4481" x2="1151.37" y2="1048.9156">
			<stop  offset="0" style="stop-color:#DBD9FF"/>
			<stop  offset="1" style="stop-color:#D1E5F6"/>
		</linearGradient>
		<path id="XMLID_278_" class="st84" d="M894.2,808.3l-41.6,24.2c-2.1,1.2-2.1,4.3,0,5.5l42.4,24.5c1,0.6,2.2,0.6,3.2,0l41.6-24.2
			c2.1-1.2,2.1-4.3,0-5.5l-42.4-24.5C896.3,807.7,895.1,807.7,894.2,808.3z"/>
		<linearGradient id="XMLID_256_" gradientUnits="userSpaceOnUse" x1="879.7276" y1="721.6373" x2="1200.579" y2="990.1048">
			<stop  offset="0" style="stop-color:#DBD9FF"/>
			<stop  offset="1" style="stop-color:#D1E5F6"/>
		</linearGradient>
		<path id="XMLID_279_" class="st85" d="M962.6,765.5l-41.6,24.2c-2.1,1.2-2.1,4.3,0,5.5l42.4,24.5c1,0.6,2.2,0.6,3.2,0l41.6-24.2
			c2.1-1.2,2.1-4.3,0-5.5l-42.4-24.5C964.8,765,963.6,765,962.6,765.5z"/>
		<linearGradient id="XMLID_259_" gradientUnits="userSpaceOnUse" x1="932.0247" y1="659.1359" x2="1252.8761" y2="927.6034">
			<stop  offset="0" style="stop-color:#DBD9FF"/>
			<stop  offset="1" style="stop-color:#D1E5F6"/>
		</linearGradient>
		<path id="XMLID_280_" class="st86" d="M1083,746.4l-42.4-24.5c-1-0.6-2.2-0.6-3.2,0l-41.6,24.2c-2.1,1.2-2.1,4.3,0,5.5l42.4,24.5
			c1,0.6,2.2,0.6,3.2,0l41.6-24.2C1085.1,750.6,1085.1,747.6,1083,746.4z"/>
		<linearGradient id="XMLID_262_" gradientUnits="userSpaceOnUse" x1="982.4067" y1="598.9233" x2="1303.2581" y2="867.3907">
			<stop  offset="0" style="stop-color:#DBD9FF"/>
			<stop  offset="1" style="stop-color:#D1E5F6"/>
		</linearGradient>
		<path id="XMLID_281_" class="st87" d="M1068.2,709.8l42.4,24.5c1,0.6,2.2,0.6,3.2,0l41.6-24.2c2.1-1.2,2.1-4.3,0-5.5l-42.4-24.5
			c-1-0.6-2.2-0.6-3.2,0l-41.6,24.2C1066.1,705.6,1066.1,708.6,1068.2,709.8z"/>
		<linearGradient id="XMLID_301_" gradientUnits="userSpaceOnUse" x1="586.1409" y1="1072.5092" x2="906.9923" y2="1340.9767">
			<stop  offset="0" style="stop-color:#DBD9FF"/>
			<stop  offset="1" style="stop-color:#D1E5F6"/>
		</linearGradient>
		<path id="XMLID_283_" class="st88" d="M657.6,1093.2l-42.4-24.5c-1-0.6-2.2-0.6-3.2,0l-41.6,24.2c-2.1,1.2-2.1,4.3,0,5.5
			l42.4,24.5c1,0.6,2.2,0.6,3.2,0l41.6-24.2C659.7,1097.4,659.7,1094.4,657.6,1093.2z"/>
		<linearGradient id="XMLID_303_" gradientUnits="userSpaceOnUse" x1="638.438" y1="1010.0078" x2="959.2894" y2="1278.4753">
			<stop  offset="0" style="stop-color:#DBD9FF"/>
			<stop  offset="1" style="stop-color:#D1E5F6"/>
		</linearGradient>
		<path id="XMLID_284_" class="st89" d="M645.3,1054.8l42.4,24.5c1,0.6,2.2,0.6,3.2,0l41.6-24.2c2.1-1.2,2.1-4.3,0-5.5l-42.4-24.5
			c-1-0.6-2.2-0.6-3.2,0l-41.6,24.2C643.2,1050.6,643.2,1053.6,645.3,1054.8z"/>
		<linearGradient id="XMLID_305_" gradientUnits="userSpaceOnUse" x1="688.8199" y1="949.7952" x2="1009.6714" y2="1218.2627">
			<stop  offset="0" style="stop-color:#DBD9FF"/>
			<stop  offset="1" style="stop-color:#D1E5F6"/>
		</linearGradient>
		<path id="XMLID_285_" class="st90" d="M763.2,1037.5l41.6-24.2c2.1-1.2,2.1-4.3,0-5.5l-42.4-24.5c-1-0.6-2.2-0.6-3.2,0l-41.6,24.2
			c-2.1,1.2-2.1,4.3,0,5.5l42.4,24.5C761,1038,762.2,1038,763.2,1037.5z"/>
		<linearGradient id="XMLID_306_" gradientUnits="userSpaceOnUse" x1="738.116" y1="890.8806" x2="1058.9673" y2="1159.348">
			<stop  offset="0" style="stop-color:#DBD9FF"/>
			<stop  offset="1" style="stop-color:#D1E5F6"/>
		</linearGradient>
		<path id="XMLID_286_" class="st91" d="M833.7,996.3l41.6-24.2c2.1-1.2,2.1-4.3,0-5.5L833,942.2c-1-0.6-2.2-0.6-3.2,0l-41.6,24.2
			c-2.1,1.2-2.1,4.3,0,5.5l42.4,24.5C831.5,996.9,832.8,996.9,833.7,996.3z"/>
		<linearGradient id="XMLID_307_" gradientUnits="userSpaceOnUse" x1="790.413" y1="828.3791" x2="1111.2644" y2="1096.8466">
			<stop  offset="0" style="stop-color:#DBD9FF"/>
			<stop  offset="1" style="stop-color:#D1E5F6"/>
		</linearGradient>
		<path id="XMLID_287_" class="st92" d="M908.6,952.7l41.6-24.2c2.1-1.2,2.1-4.3,0-5.5l-42.4-24.5c-1-0.6-2.2-0.6-3.2,0l-41.6,24.2
			c-2.1,1.2-2.1,4.3,0,5.5l42.4,24.5C906.4,953.3,907.6,953.3,908.6,952.7z"/>
		<linearGradient id="XMLID_308_" gradientUnits="userSpaceOnUse" x1="840.795" y1="768.1665" x2="1161.6464" y2="1036.634">
			<stop  offset="0" style="stop-color:#DBD9FF"/>
			<stop  offset="1" style="stop-color:#D1E5F6"/>
		</linearGradient>
		<path id="XMLID_288_" class="st93" d="M981,910.9l41.6-24.2c2.1-1.2,2.1-4.3,0-5.5l-42.4-24.5c-1-0.6-2.2-0.6-3.2,0L935.5,881
			c-2.1,1.2-2.1,4.3,0,5.5l42.4,24.5C978.8,911.5,980,911.5,981,910.9z"/>
		<linearGradient id="XMLID_309_" gradientUnits="userSpaceOnUse" x1="890.0041" y1="709.3557" x2="1210.8555" y2="977.8232">
			<stop  offset="0" style="stop-color:#DBD9FF"/>
			<stop  offset="1" style="stop-color:#D1E5F6"/>
		</linearGradient>
		<path id="XMLID_289_" class="st94" d="M1049.4,868.2l41.6-24.2c2.1-1.2,2.1-4.3,0-5.5l-42.4-24.5c-1-0.6-2.2-0.6-3.2,0l-41.6,24.2
			c-2.1,1.2-2.1,4.3,0,5.5l42.4,24.5C1047.2,868.8,1048.4,868.8,1049.4,868.2z"/>
		<linearGradient id="XMLID_310_" gradientUnits="userSpaceOnUse" x1="942.3011" y1="646.8543" x2="1263.1526" y2="915.3218">
			<stop  offset="0" style="stop-color:#DBD9FF"/>
			<stop  offset="1" style="stop-color:#D1E5F6"/>
		</linearGradient>
		<path id="XMLID_290_" class="st95" d="M1078.8,800.1l42.4,24.5c1,0.6,2.2,0.6,3.2,0l41.6-24.2c2.1-1.2,2.1-4.3,0-5.5l-42.4-24.5
			c-1-0.6-2.2-0.6-3.2,0l-41.6,24.2C1076.7,795.9,1076.7,798.9,1078.8,800.1z"/>
		<linearGradient id="XMLID_311_" gradientUnits="userSpaceOnUse" x1="992.6831" y1="586.6417" x2="1313.5345" y2="855.1092">
			<stop  offset="0" style="stop-color:#DBD9FF"/>
			<stop  offset="1" style="stop-color:#D1E5F6"/>
		</linearGradient>
		<path id="XMLID_291_" class="st96" d="M1151.1,758.3l42.4,24.5c1,0.6,2.2,0.6,3.2,0l41.6-24.2c2.1-1.2,2.1-4.3,0-5.5l-42.4-24.5
			c-1-0.6-2.2-0.6-3.2,0l-41.6,24.2C1149,754.1,1149,757.1,1151.1,758.3z"/>
		<linearGradient id="XMLID_312_" gradientUnits="userSpaceOnUse" x1="599.392" y1="1056.6725" x2="920.2434" y2="1325.14">
			<stop  offset="0" style="stop-color:#DBD9FF"/>
			<stop  offset="1" style="stop-color:#D1E5F6"/>
		</linearGradient>
		<path id="XMLID_292_" class="st97" d="M747.5,1141.5l-42.4-24.5c-1-0.6-2.2-0.6-3.2,0l-41.6,24.2c-2.1,1.2-2.1,4.3,0,5.5
			l42.4,24.5c1,0.6,2.2,0.6,3.2,0l41.6-24.2C749.6,1145.7,749.6,1142.7,747.5,1141.5z"/>
		<linearGradient id="XMLID_313_" gradientUnits="userSpaceOnUse" x1="651.6891" y1="994.1711" x2="972.5405" y2="1262.6385">
			<stop  offset="0" style="stop-color:#DBD9FF"/>
			<stop  offset="1" style="stop-color:#D1E5F6"/>
		</linearGradient>
		<path id="XMLID_293_" class="st98" d="M822.3,1097.9l-42.4-24.5c-1-0.6-2.2-0.6-3.2,0l-41.6,24.2c-2.1,1.2-2.1,4.3,0,5.5
			l42.4,24.5c1,0.6,2.2,0.6,3.2,0l41.6-24.2C824.5,1102.1,824.5,1099.1,822.3,1097.9z"/>
		<linearGradient id="XMLID_314_" gradientUnits="userSpaceOnUse" x1="702.0711" y1="933.9586" x2="1022.9225" y2="1202.426">
			<stop  offset="0" style="stop-color:#DBD9FF"/>
			<stop  offset="1" style="stop-color:#D1E5F6"/>
		</linearGradient>
		<path id="XMLID_294_" class="st99" d="M894.7,1056.1l-42.4-24.5c-1-0.6-2.2-0.6-3.2,0l-41.6,24.2c-2.1,1.2-2.1,4.3,0,5.5
			l42.4,24.5c1,0.6,2.2,0.6,3.2,0l41.6-24.2C896.8,1060.3,896.8,1057.3,894.7,1056.1z"/>
		<linearGradient id="XMLID_315_" gradientUnits="userSpaceOnUse" x1="800.3645" y1="816.4859" x2="1121.2159" y2="1084.9534">
			<stop  offset="0" style="stop-color:#DBD9FF"/>
			<stop  offset="1" style="stop-color:#D1E5F6"/>
		</linearGradient>
		<path id="XMLID_295_" class="st100" d="M1104.2,932.1l-42.4-24.5c-1-0.6-2.2-0.6-3.2,0L878,1014.7c-2.1,1.2-2.1,4.3,0,5.5
			l42.4,24.5c1,0.6,2.2,0.6,3.2,0l180.6-107.1C1106.3,936.3,1106.3,933.3,1104.2,932.1z"/>
		<linearGradient id="XMLID_316_" gradientUnits="userSpaceOnUse" x1="815.9232" y1="797.8914" x2="1136.7745" y2="1066.3589">
			<stop  offset="0" style="stop-color:#DBD9FF"/>
			<stop  offset="1" style="stop-color:#D1E5F6"/>
		</linearGradient>
		<path id="XMLID_296_" class="st101" d="M1266.5,1025.4l-127.6-73.2c-2-1.1-4.4-1.1-6.4,0l-174.4,103.3c-4.2,2.5-4.1,8.5,0.1,10.9
			l127.6,73.2c2,1.1,4.4,1.1,6.4,0l174.4-103.3C1270.8,1033.9,1270.7,1027.8,1266.5,1025.4z"/>
		<linearGradient id="XMLID_317_" gradientUnits="userSpaceOnUse" x1="903.2551" y1="693.519" x2="1224.1066" y2="961.9866">
			<stop  offset="0" style="stop-color:#DBD9FF"/>
			<stop  offset="1" style="stop-color:#D1E5F6"/>
		</linearGradient>
		<path id="XMLID_297_" class="st102" d="M1093.8,892l42.4,24.5c1,0.6,2.2,0.6,3.2,0l41.6-24.2c2.1-1.2,2.1-4.3,0-5.5l-42.4-24.5
			c-1-0.6-2.2-0.6-3.2,0l-41.6,24.2C1091.7,887.8,1091.7,890.8,1093.8,892z"/>
		<linearGradient id="XMLID_318_" gradientUnits="userSpaceOnUse" x1="955.5522" y1="631.0176" x2="1276.4036" y2="899.4852">
			<stop  offset="0" style="stop-color:#DBD9FF"/>
			<stop  offset="1" style="stop-color:#D1E5F6"/>
		</linearGradient>
		<path id="XMLID_298_" class="st103" d="M1214.2,872.9l41.6-24.2c2.1-1.2,2.1-4.3,0-5.5l-42.4-24.5c-1-0.6-2.2-0.6-3.2,0
			l-41.6,24.2c-2.1,1.2-2.1,4.3,0,5.5l42.4,24.5C1212,873.4,1213.2,873.4,1214.2,872.9z"/>
		<linearGradient id="XMLID_319_" gradientUnits="userSpaceOnUse" x1="1005.9342" y1="570.8051" x2="1326.7856" y2="839.2725">
			<stop  offset="0" style="stop-color:#DBD9FF"/>
			<stop  offset="1" style="stop-color:#D1E5F6"/>
		</linearGradient>
		<path id="XMLID_299_" class="st104" d="M1328.2,801.4l-42.4-24.5c-1-0.6-2.2-0.6-3.2,0l-41.6,24.2c-2.1,1.2-2.1,4.3,0,5.5
			l42.4,24.5c1,0.6,2.2,0.6,3.2,0l41.6-24.2C1330.3,805.6,1330.3,802.6,1328.2,801.4z"/>
	</g>
	<g id="XMLID_117_">
		<g id="XMLID_131_" class="st0">
			<g id="XMLID_160_">
				
					<image style="overflow:visible;" width="790" height="584" id="XMLID_264_" xlink:href="8FDEC8891B80A155.png"  transform="matrix(0.24 0 0 0.24 546.4855 897.3196)">
				</image>
			</g>
			<g id="XMLID_136_">
				<linearGradient id="XMLID_320_" gradientUnits="userSpaceOnUse" x1="661.5392" y1="738.7927" x2="661.5392" y2="942.8769">
					<stop  offset="0" style="stop-color:#FDF478"/>
					<stop  offset="1" style="stop-color:#FEBF00"/>
				</linearGradient>
				<polygon id="XMLID_137_" class="st105" points="691.2,693.2 690.4,951.2 631.9,985.2 632.6,727.3 				"/>
			</g>
			<g id="XMLID_134_">
				<linearGradient id="XMLID_321_" gradientUnits="userSpaceOnUse" x1="602.8143" y1="958.6907" x2="602.8143" y2="735.5782">
					<stop  offset="0" style="stop-color:#FAB340"/>
					<stop  offset="1" style="stop-color:#F46443"/>
				</linearGradient>
				<polygon id="XMLID_135_" class="st106" points="632.6,727.3 631.9,985.2 573,951.2 573.7,693.2 				"/>
			</g>
			<g id="XMLID_132_">
				<linearGradient id="XMLID_322_" gradientUnits="userSpaceOnUse" x1="615.7548" y1="682.1166" x2="644.2308" y2="701.1006">
					<stop  offset="0" style="stop-color:#FCCD00"/>
					<stop  offset="1" style="stop-color:#F1942E"/>
				</linearGradient>
				<polygon id="XMLID_133_" class="st107" points="691.2,693.2 632.6,727.3 573.7,693.2 632.3,659.2 				"/>
			</g>
		</g>
	</g>
	<g id="XMLID_127_">
		<g id="XMLID_130_" class="st0">
			<g id="XMLID_162_">
				
					<image style="overflow:visible;" width="790" height="584" id="XMLID_268_" xlink:href="8FDEC8891B80A156.png"  transform="matrix(0.24 0 0 0.24 675.8859 808.2101)">
				</image>
			</g>
			<g id="XMLID_146_">
				<linearGradient id="XMLID_323_" gradientUnits="userSpaceOnUse" x1="799.5207" y1="525.2226" x2="799.5207" y2="845.3501">
					<stop  offset="0" style="stop-color:#FDF478"/>
					<stop  offset="1" style="stop-color:#FEBF00"/>
				</linearGradient>
				<polygon id="XMLID_147_" class="st108" points="829.3,478.8 828.2,865.7 769.7,899.7 770.8,512.9 				"/>
			</g>
			<g id="XMLID_142_">
				<linearGradient id="XMLID_324_" gradientUnits="userSpaceOnUse" x1="740.7957" y1="862.1887" x2="740.7957" y2="540.5714">
					<stop  offset="0" style="stop-color:#FAB340"/>
					<stop  offset="1" style="stop-color:#F46443"/>
				</linearGradient>
				<polygon id="XMLID_145_" class="st109" points="770.8,512.9 769.7,899.7 710.8,865.7 711.9,478.8 				"/>
			</g>
			<g id="XMLID_138_">
				<linearGradient id="XMLID_325_" gradientUnits="userSpaceOnUse" x1="756.4428" y1="469.6002" x2="792.8288" y2="493.3302">
					<stop  offset="0" style="stop-color:#FCCD00"/>
					<stop  offset="1" style="stop-color:#F1942E"/>
				</linearGradient>
				<polygon id="XMLID_139_" class="st110" points="829.3,478.8 770.8,512.9 711.9,478.8 770.4,444.8 				"/>
			</g>
		</g>
	</g>
	<g id="XMLID_128_">
		<g id="XMLID_141_" class="st0">
			<g id="XMLID_164_">
				
					<image style="overflow:visible;" width="790" height="584" id="XMLID_300_" xlink:href="8FDEC8891B80A154.png"  transform="matrix(0.24 0 0 0.24 810.9221 724.8093)">
				</image>
			</g>
			<g id="XMLID_153_">
				<linearGradient id="XMLID_326_" gradientUnits="userSpaceOnUse" x1="934.3741" y1="317.9805" x2="934.3741" y2="765.8236">
					<stop  offset="0" style="stop-color:#FDF478"/>
					<stop  offset="1" style="stop-color:#FEBF00"/>
				</linearGradient>
				<polygon id="XMLID_154_" class="st111" points="964.4,266.6 962.9,782.4 904.4,816.4 905.8,300.6 				"/>
			</g>
			<g id="XMLID_150_">
				<linearGradient id="XMLID_327_" gradientUnits="userSpaceOnUse" x1="875.6491" y1="311.6525" x2="875.6491" y2="783.1312">
					<stop  offset="0" style="stop-color:#F46443"/>
					<stop  offset="1" style="stop-color:#FAB340"/>
				</linearGradient>
				<polygon id="XMLID_152_" class="st112" points="905.8,300.6 904.4,816.4 845.5,782.4 846.9,266.6 				"/>
			</g>
			<g id="XMLID_148_">
				<linearGradient id="XMLID_328_" gradientUnits="userSpaceOnUse" x1="891.0764" y1="255.0318" x2="929.0444" y2="285.0898">
					<stop  offset="0" style="stop-color:#FCCD00"/>
					<stop  offset="1" style="stop-color:#F1942E"/>
				</linearGradient>
				<polygon id="XMLID_149_" class="st113" points="964.4,266.6 905.8,300.6 846.9,266.6 905.5,232.6 				"/>
			</g>
		</g>
	</g>
	<g id="XMLID_12_">
		<ellipse id="XMLID_271_" class="st12" cx="1323.2" cy="879.3" rx="50.2" ry="25.4"/>
		<path id="XMLID_270_" class="st114" d="M1297,873.8c5.4-3,20.4-8.6,24.8-0.8c3.9,6.9,4,8.8,0.2,10.4
			C1312.6,887.4,1276.4,885.3,1297,873.8z"/>
		<path id="XMLID_269_" class="st114" d="M1353.8,874.5c-5.3-3.3-19.9-9.7-24.7-2c-4.2,6.7-4.4,8.5-0.7,10.4
			C1337.5,887.3,1373.7,887,1353.8,874.5z"/>
		<path id="XMLID_11_" class="st52" d="M1314.1,876h-1c-2.9,0-5.4-2.4-5.4-5.4v-50.9c0-2.9,2.4-5.4,5.4-5.4h1c2.9,0,5.4,2.4,5.4,5.4
			v50.9C1319.4,873.6,1317,876,1314.1,876z"/>
		<path id="XMLID_14_" class="st52" d="M1335,876h-1c-2.9,0-5.4-2.4-5.4-5.4v-50.9c0-2.9,2.4-5.4,5.4-5.4h1c2.9,0,5.4,2.4,5.4,5.4
			v50.9C1340.4,873.6,1338,876,1335,876z"/>
		<path id="XMLID_2_" class="st115" d="M1323.7,653.9c0,0-9.5-4.9-18.6,4.1s-4.9,34.1-4.4,37.1s-5.2,9.7-8.2,6.1c0,0,1.5,7.1,9,8.5
			c7.5,1.4,15.8-5.1,15.8-5.1h11.3c0,0,15.5,11.8,25.3-1c0,0-9.6-0.6-9.1-4.9c0.5-4.4,2.7-26.6,0-35
			C1342.2,655.3,1327.6,650.4,1323.7,653.9z"/>
		<circle id="XMLID_266_" class="st52" cx="1323.9" cy="682.4" r="18.8"/>
		<path id="XMLID_10_" class="st53" d="M1341.4,674.3c0,9.3-33.6,9.3-33.6,0s7.5-16.8,16.8-16.8S1341.4,665,1341.4,674.3z"/>
		<path id="XMLID_260_" class="st52" d="M1323.7,709.7h-1.7c-1.4,0-2.6-1.2-2.6-2.6v-7c0-1.4,1.2-2.6,2.6-2.6h1.7
			c1.4,0,2.6,1.2,2.6,2.6v7C1326.4,708.5,1325.2,709.7,1323.7,709.7z"/>
		<path id="XMLID_253_" class="st116" d="M1344.1,722.7c-1.8-9.7-9.6-17-19-17h-3.2c-10.6,0-19.3,9.5-19.3,21.1v47
			c0,11.6,8.7,21.1,19.3,21.1h3.2c10.6,0,19.3-9.5,19.3-21.1v-27.3C1344.5,740.3,1345.2,732.6,1344.1,722.7z"/>
		<path id="XMLID_252_" class="st47" d="M1327.3,708.1h-10.1c-0.7,0-1.3-0.6-1.3-1.3V706c0-0.7,0.6-1.3,1.3-1.3h10.1
			c0.7,0,1.3,0.6,1.3,1.3v0.9C1328.7,707.5,1328.1,708.1,1327.3,708.1z"/>
		<path id="XMLID_4_" class="st117" d="M1357.7,826.7h-68c-4.2,0-7.1-4.3-5.5-8.2l16.9-41c0.9-2.2,3.1-3.7,5.5-3.7
			c0,0,12.2,2.1,16.6,2.2c4.6,0,17.5-2.2,17.5-2.2c2.4,0,4.6,1.4,5.5,3.7l16.9,41C1364.8,822.4,1361.9,826.7,1357.7,826.7z"/>
		
			<ellipse id="XMLID_41_" transform="matrix(0.4038 -0.9148 0.9148 0.4038 94.6247 1590.0823)" class="st52" cx="1267.3" cy="722.4" rx="4.3" ry="4.3"/>
		<path id="XMLID_15_" class="st118" d="M1305.1,717.8c-7.5-1.7-13,26-17.5,24.8c-5.4-1.5-12.2-25.2-18.8-20.4
			c-7,5.1,5.9,18,10.7,23.9c4.7,5.9,13.5,8.6,17.9-1.4C1301.8,734.8,1312.8,719.6,1305.1,717.8z"/>
		
			<ellipse id="XMLID_54_" transform="matrix(0.4835 -0.8753 0.8753 0.4835 24.6854 1567.5315)" class="st52" cx="1340.7" cy="762.8" rx="4.3" ry="4.3"/>
		<path id="XMLID_16_" class="st118" d="M1338.2,720c-2.3,7,16.5,11,23.2,19.7c3.2,4.2-26,16.1-21.9,22.8c4.3,7.1,16-5.2,21.9-9.4
			c10.9-7.7,10.9-18.5,1.8-23.5C1354.1,724.5,1340.6,712.8,1338.2,720z"/>
	</g>
	<g id="XMLID_1_">
		<polygon id="XMLID_87_" class="st119" points="422.3,1285.1 366.1,1317.7 309.5,1285.1 365.7,1252.4 		"/>
	</g>
	<g id="XMLID_89_">
		<polygon id="XMLID_90_" class="st119" points="355.7,1245.4 299.5,1278 242.9,1245.4 299.1,1212.7 		"/>
	</g>
	<g id="XMLID_91_">
		<polygon id="XMLID_92_" class="st119" points="289.1,1207.3 232.9,1239.9 176.3,1207.3 232.5,1174.6 		"/>
	</g>
	<g id="XMLID_1847_">
		<g id="XMLID_1816_">
			<g id="XMLID_121_">
				<linearGradient id="XMLID_329_" gradientUnits="userSpaceOnUse" x1="249.4498" y1="1123.4821" x2="249.4498" y2="1211.0258">
					<stop  offset="0" style="stop-color:#3ADFF0"/>
					<stop  offset="1" style="stop-color:#348EF8"/>
				</linearGradient>
				<polygon id="XMLID_122_" class="st120" points="269.7,1099.7 269.4,1202.9 229.2,1226.2 229.5,1123 				"/>
			</g>
		</g>
		<g id="XMLID_1814_">
			<g id="XMLID_119_">
				<linearGradient id="XMLID_330_" gradientUnits="userSpaceOnUse" x1="209.179" y1="1129.8101" x2="209.179" y2="1208.91">
					<stop  offset="0" style="stop-color:#3EE0F9"/>
					<stop  offset="1" style="stop-color:#30ABEF"/>
				</linearGradient>
				<polygon id="XMLID_120_" class="st121" points="229.5,1123 229.2,1226.2 188.8,1202.9 188.8,1099.7 				"/>
			</g>
		</g>
		<g id="XMLID_1812_">
			<g id="XMLID_106_">
				<polygon id="XMLID_114_" class="st122" points="269.7,1099.7 229.5,1123 189.1,1099.7 229.3,1076.4 				"/>
			</g>
		</g>
		<g id="XMLID_1837_">
			<g id="XMLID_115_">
				<linearGradient id="XMLID_331_" gradientUnits="userSpaceOnUse" x1="318.4048" y1="1109.7714" x2="318.4048" y2="1235.3167">
					<stop  offset="0" style="stop-color:#FBA859"/>
					<stop  offset="1" style="stop-color:#F54593"/>
				</linearGradient>
				<polygon id="XMLID_118_" class="st123" points="338.7,1085.6 338.3,1240.3 298.1,1263.7 298.6,1108.9 				"/>
			</g>
		</g>
		<g id="XMLID_1819_">
			<g id="XMLID_110_">
				<linearGradient id="XMLID_332_" gradientUnits="userSpaceOnUse" x1="278.139" y1="1111.8807" x2="278.139" y2="1249.0037">
					<stop  offset="0" style="stop-color:#FBE246"/>
					<stop  offset="1" style="stop-color:#FF847E"/>
				</linearGradient>
				<polygon id="XMLID_111_" class="st124" points="298.6,1108.9 298.1,1263.7 257.7,1240.3 258.2,1085.6 				"/>
			</g>
		</g>
		<g id="XMLID_1811_">
			<g id="XMLID_112_">
				<polygon id="XMLID_113_" class="st125" points="338.7,1085.6 298.6,1108.9 258.2,1085.6 298.3,1062.3 				"/>
			</g>
		</g>
		<g id="XMLID_205_">
			<g id="XMLID_1782_" class="st0">
				<g id="XMLID_1844_">
					<linearGradient id="XMLID_333_" gradientUnits="userSpaceOnUse" x1="387.8949" y1="1028.562" x2="387.8949" y2="1262.8904">
						<stop  offset="0" style="stop-color:#3ADFF0"/>
						<stop  offset="1" style="stop-color:#348EF8"/>
					</linearGradient>
					<polygon id="XMLID_1845_" class="st126" points="408.4,992.7 407.6,1276.4 367.4,1299.8 368.2,1016.1 					"/>
				</g>
				<g id="XMLID_1842_">
					<linearGradient id="XMLID_334_" gradientUnits="userSpaceOnUse" x1="347.6292" y1="1025.3979" x2="347.6292" y2="1273.2471">
						<stop  offset="0" style="stop-color:#3EE0F9"/>
						<stop  offset="1" style="stop-color:#30ABEF"/>
					</linearGradient>
					<polygon id="XMLID_1843_" class="st127" points="368.2,1016.1 367.4,1299.8 327,1276.4 327.8,992.7 					"/>
				</g>
				<g id="XMLID_1809_">
					<polygon id="XMLID_1841_" class="st122" points="408.4,992.7 368.2,1016.1 327.8,992.7 368,969.4 					"/>
				</g>
			</g>
		</g>
	</g>
</g>
</svg>
